# This file uses centimeters as units for non-parametric coordinates.

mtllib CheatFisherForBoat.mtl
g default
v -2.740689 1.802499 -2.091193
v -2.499087 1.802499 -2.091193
v -2.740689 1.852562 -2.091193
v -2.499087 1.852562 -2.091193
v -2.740689 1.852562 -2.395406
v -2.499087 1.852562 -2.395406
v -2.740689 1.802499 -2.395406
v -2.499087 1.802499 -2.395406
vt 0.302773 0.658980
vt 0.302783 0.852461
vt 0.302785 0.892552
vt 0.254407 0.783908
vt 0.465782 0.892393
vt 0.048008 0.783935
vt 0.465780 0.852302
vt 0.465771 0.658822
vt 0.048030 0.947855
vt 0.014063 0.947860
vt 0.254430 0.947827
vt 0.302771 0.618889
vt 0.288396 0.947823
vt 0.288374 0.783903
vt 0.465769 0.618730
vt 0.014041 0.783940
vn 0.000000 0.000000 1.000000
vn 0.000000 0.000000 1.000000
vn 0.000000 0.000000 1.000000
vn 0.000000 0.000000 1.000000
vn 0.000000 1.000000 0.000000
vn 0.000000 1.000000 0.000000
vn 0.000000 1.000000 0.000000
vn 0.000000 1.000000 0.000000
vn 0.000000 0.000000 -1.000000
vn 0.000000 0.000000 -1.000000
vn 0.000000 0.000000 -1.000000
vn 0.000000 0.000000 -1.000000
vn 0.000000 -1.000000 0.000000
vn 0.000000 -1.000000 0.000000
vn 0.000000 -1.000000 0.000000
vn 0.000000 -1.000000 0.000000
vn 1.000000 0.000000 0.000000
vn 1.000000 0.000000 0.000000
vn 1.000000 0.000000 0.000000
vn 1.000000 0.000000 0.000000
vn -1.000000 0.000000 0.000000
vn -1.000000 0.000000 0.000000
vn -1.000000 0.000000 0.000000
vn -1.000000 0.000000 0.000000
s off
g TopSurface CheatFisher Furniture_for_boat
usemtl initialShadingGroup
f 1/14/1 2/13/2 4/11/3 3/4/4
f 3/4/5 4/11/6 6/9/7 5/6/8
f 5/6/9 6/9/10 8/10/11 7/16/12
f 7/8/13 8/7/14 2/2/15 1/1/16
f 2/2/17 8/7/18 6/5/19 4/3/20
f 7/8/21 1/1/22 3/12/23 5/15/24
g default
v -2.541726 2.551968 -2.364651
v -2.540772 2.500813 -2.465066
v -2.539286 2.421137 -2.544755
v -2.537414 2.320740 -2.595919
v -2.535339 2.209449 -2.613549
v -2.533264 2.098157 -2.595919
v -2.531392 1.997760 -2.544755
v -2.529906 1.918085 -2.465066
v -2.528952 1.866930 -2.364651
v -2.528623 1.849303 -2.253341
v -2.528952 1.866930 -2.142030
v -2.529906 1.918085 -2.041615
v -2.531392 1.997760 -1.961926
v -2.533264 2.098158 -1.910762
v -2.535339 2.209449 -1.893132
v -2.537414 2.320740 -1.910762
v -2.539286 2.421137 -1.961926
v -2.540772 2.500813 -2.041615
v -2.541726 2.551968 -2.142030
v -2.542055 2.569594 -2.253341
v -2.729893 2.548459 -2.364651
v -2.728939 2.497304 -2.465066
v -2.727453 2.417628 -2.544755
v -2.725581 2.317231 -2.595919
v -2.723506 2.205940 -2.613549
v -2.721430 2.094649 -2.595919
v -2.719558 1.994252 -2.544755
v -2.718073 1.914576 -2.465066
v -2.717119 1.863421 -2.364651
v -2.716790 1.845794 -2.253341
v -2.717119 1.863421 -2.142030
v -2.718073 1.914576 -2.041615
v -2.719558 1.994252 -1.961926
v -2.721430 2.094649 -1.910762
v -2.723506 2.205940 -1.893132
v -2.725581 2.317231 -1.910762
v -2.727453 2.417628 -1.961926
v -2.728939 2.497304 -2.041615
v -2.729893 2.548459 -2.142030
v -2.730221 2.566086 -2.253341
vt 0.608029 0.965834
vt 0.678151 0.988611
vt 0.482913 0.792629
vt 0.505636 0.862546
vt 0.751881 0.988604
vt 0.482908 0.719112
vt 0.821999 0.965814
vt 0.505621 0.649192
vt 0.013536 0.392333
vt 0.139598 0.392353
vt 0.924974 0.862819
vt 0.608302 0.546496
vt 0.947751 0.792696
vt 0.678218 0.523773
vt 0.947744 0.718967
vt 0.751735 0.523768
vt 0.924953 0.648848
vt 0.821656 0.546481
vt 0.881611 0.589204
vt 0.881135 0.589689
vt 0.821958 0.545873
vt 0.924351 0.649162
vt 0.751835 0.523096
vt 0.947074 0.719079
vt 0.678106 0.523104
vt 0.947079 0.792596
vt 0.607988 0.545894
vt 0.924366 0.862516
vt 0.160543 0.392343
vt 0.286605 0.392364
vt 0.505013 0.648889
vt 0.821686 0.965211
vt 0.482236 0.719012
vt 0.751768 0.987934
vt 0.482243 0.792741
vt 0.678252 0.987939
vt 0.505034 0.862859
vt 0.608332 0.965226
vt 0.548376 0.922504
vt 0.548853 0.922019
vt 0.139536 0.769796
vt 0.139548 0.694308
vt 0.286654 0.090409
vt 0.286642 0.165898
vt 0.286630 0.241386
vt 0.286617 0.316875
vt 0.881159 0.921995
vt 0.286593 0.467852
vt 0.286580 0.543341
vt 0.286568 0.618830
vt 0.286556 0.694318
vt 0.286543 0.769807
vt 0.139647 0.090399
vt 0.139635 0.165888
vt 0.139622 0.241376
vt 0.139610 0.316864
vt 0.548829 0.589713
vt 0.139586 0.467842
vt 0.139573 0.543331
vt 0.139561 0.618819
vt 0.160605 0.014900
vt 0.013487 0.694288
vt 0.160593 0.090389
vt 0.160580 0.165877
vt 0.160568 0.241366
vt 0.160555 0.316854
vt 0.548344 0.589237
vt 0.160531 0.467832
vt 0.160519 0.543320
vt 0.160506 0.618809
vt 0.160494 0.694298
vt 0.013597 0.014889
vt 0.013585 0.090378
vt 0.013573 0.165867
vt 0.013561 0.241355
vt 0.013548 0.316844
vt 0.881643 0.922471
vt 0.013523 0.467822
vt 0.013511 0.543310
vt 0.013499 0.618799
vt 0.160482 0.769787
vt 0.139659 0.014910
vt 0.013475 0.769776
vt 0.286667 0.014920
vn -0.017732 0.950891 -0.309017
vn -0.015084 0.808876 -0.587785
vn -0.015084 0.808876 -0.587786
vn -0.017732 0.950891 -0.309016
vn -0.010959 0.587683 -0.809017
vn -0.010959 0.587683 -0.809017
vn -0.005761 0.308963 -0.951056
vn -0.005761 0.308964 -0.951056
vn -0.000000 0.000001 -1.000000
vn -0.000000 0.000000 -1.000000
vn 0.005761 -0.308964 -0.951056
vn 0.005761 -0.308963 -0.951056
vn 0.010959 -0.587684 -0.809016
vn 0.010959 -0.587684 -0.809016
vn 0.015083 -0.808877 -0.587785
vn 0.015083 -0.808877 -0.587784
vn 0.017732 -0.950891 -0.309017
vn 0.017732 -0.950891 -0.309018
vn 0.018644 -0.999826 0.000000
vn 0.018644 -0.999826 0.000000
vn 0.017732 -0.950891 0.309017
vn 0.017732 -0.950891 0.309018
vn 0.015083 -0.808876 0.587785
vn 0.015083 -0.808877 0.587785
vn 0.010959 -0.587683 0.809017
vn 0.010959 -0.587683 0.809017
vn 0.005761 -0.308963 0.951057
vn 0.005761 -0.308963 0.951057
vn -0.000000 0.000002 1.000000
vn -0.000000 0.000001 1.000000
vn -0.005761 0.308963 0.951057
vn -0.005761 0.308963 0.951057
vn -0.010959 0.587682 0.809018
vn -0.010959 0.587682 0.809018
vn -0.015083 0.808877 0.587785
vn -0.015083 0.808876 0.587786
vn -0.017731 0.950891 0.309017
vn -0.017731 0.950891 0.309016
vn -0.018644 0.999826 0.000001
vn -0.018644 0.999826 0.000001
vn 0.999826 0.018644 0.000000
vn 0.999826 0.018644 -0.000000
vn 0.999826 0.018644 0.000000
vn 0.999826 0.018644 0.000000
vn -0.999826 -0.018644 0.000000
vn -0.999826 -0.018644 0.000000
vn -0.999826 -0.018644 0.000000
vn -0.999826 -0.018644 0.000000
vn -0.999826 -0.018644 0.000000
vn -0.999826 -0.018644 0.000000
vn -0.999826 -0.018644 0.000000
vn -0.999826 -0.018644 0.000000
vn -0.999826 -0.018644 -0.000000
vn -0.999826 -0.018644 -0.000000
vn -0.999826 -0.018645 -0.000000
vn -0.999826 -0.018645 -0.000000
vn -0.999826 -0.018644 0.000000
vn -0.999826 -0.018644 0.000000
vn -0.999826 -0.018644 0.000000
vn -0.999826 -0.018644 -0.000000
vn -0.999826 -0.018644 -0.000000
vn -0.999826 -0.018645 -0.000000
vn -0.999826 -0.018645 -0.000000
vn -0.999826 -0.018644 0.000000
vn 0.999826 0.018644 -0.000000
vn 0.999826 0.018644 -0.000001
vn 0.999826 0.018644 -0.000001
vn 0.999826 0.018644 -0.000000
vn 0.999826 0.018644 0.000001
vn 0.999826 0.018644 0.000001
vn 0.999826 0.018644 0.000000
vn 0.999826 0.018644 0.000000
vn 0.999826 0.018644 0.000000
vn 0.999826 0.018644 0.000000
vn 0.999826 0.018642 0.000000
vn 0.999826 0.018644 0.000000
vn 0.999826 0.018644 0.000000
vn 0.999826 0.018644 0.000000
vn 0.999826 0.018644 0.000000
vn 0.999826 0.018642 0.000000
s 1
g CheatFisher Furniture_for_boat Fisher
usemtl initialShadingGroup
f 9/78/25 10/96/26 30/76/27 29/58/28
f 10/96/26 11/95/29 31/75/30 30/76/27
f 11/95/29 12/94/31 32/74/32 31/75/30
f 12/94/31 13/25/33 33/26/34 32/74/32
f 13/25/33 14/92/35 34/72/36 33/26/34
f 14/92/35 15/91/37 35/71/38 34/72/36
f 15/91/37 16/90/39 36/70/40 35/71/38
f 16/90/39 17/89/41 37/69/42 36/70/40
f 17/89/41 18/88/43 38/98/44 37/69/42
f 18/97/43 19/87/45 39/67/46 38/68/44
f 19/87/45 20/86/47 40/66/48 39/67/46
f 20/86/47 21/85/49 41/65/50 40/66/48
f 21/85/49 22/84/51 42/64/52 41/65/50
f 22/84/51 23/45/53 43/46/54 42/64/52
f 23/45/53 24/82/55 44/62/56 43/46/54
f 24/82/55 25/81/57 45/61/58 44/62/56
f 25/81/57 26/80/59 46/60/60 45/61/58
f 26/80/59 27/79/61 47/59/62 46/60/60
f 27/79/61 28/77/63 48/100/64 47/59/62
f 28/99/63 9/78/25 29/58/28 48/57/64
s 2
f 28/55/65 18/35/66 17/33/67 9/17/68
s 3
f 48/56/69 38/36/70 39/38/71 47/54/72
f 48/56/69 29/20/73 37/34/74 38/36/70
f 46/52/75 40/40/76 41/42/77 45/50/78
f 47/54/72 39/38/71 40/40/76 46/52/75
f 44/48/79 42/44/80 43/63/81
f 45/50/78 41/42/77 42/44/80 44/48/79
f 36/32/82 30/19/83 31/22/84 35/30/85
f 37/34/74 29/20/73 30/19/83 36/32/82
f 35/30/85 31/22/84 32/24/86 34/28/87
f 34/28/87 32/24/86 33/73/88
s 2
f 27/53/89 26/51/90 20/39/91 19/37/92
f 10/18/93 16/31/94 15/29/95 11/21/96
f 9/17/68 17/33/67 16/31/94 10/18/93
f 12/23/97 14/27/98 13/93/99
f 11/21/96 15/29/95 14/27/98 12/23/97
f 27/53/89 19/37/92 18/35/66 28/55/65
f 21/41/100 25/49/101 24/47/102 22/43/103
f 20/39/91 26/51/90 25/49/101 21/41/100
f 22/43/103 24/47/102 23/83/104
g default
v -2.344770 2.469080 -2.215798
v -2.344770 2.444277 -2.226072
v -2.344770 2.419474 -2.215798
v -2.344770 2.409201 -2.190995
v -2.344770 2.419474 -2.166192
v -2.344770 2.444277 -2.155918
v -2.344770 2.469080 -2.166192
v -2.344770 2.479354 -2.190995
v -2.545711 2.469080 -2.215798
v -2.545711 2.444277 -2.226072
v -2.545711 2.419474 -2.215798
v -2.545711 2.409201 -2.190995
v -2.545711 2.419474 -2.166192
v -2.545711 2.444277 -2.155918
v -2.545711 2.469080 -2.166192
v -2.545711 2.479354 -2.190995
v -2.344770 2.444277 -2.190995
vt 0.895188 0.575955
vt 0.922801 0.575639
vt 0.459138 0.603699
vt 0.433366 0.603706
vt 0.942103 0.555891
vt 0.484911 0.603691
vt 0.941787 0.528279
vt 0.304503 0.603747
vt 0.922039 0.508976
vt 0.330275 0.603739
vt 0.894426 0.509292
vt 0.356048 0.603731
vt 0.875124 0.529041
vt 0.381820 0.603723
vt 0.875440 0.556654
vt 0.407593 0.603714
vt 0.908614 0.542466
vt 0.510623 0.410780
vt 0.304443 0.410844
vt 0.510683 0.603682
vt 0.407533 0.410813
vt 0.433306 0.410804
vt 0.381760 0.410820
vt 0.355988 0.410829
vt 0.330215 0.410837
vt 0.484851 0.410788
vt 0.459078 0.410796
vn 0.000000 0.707104 -0.707110
vn 0.000000 0.000000 -1.000000
vn 0.000000 0.000000 -1.000000
vn 0.000000 0.707104 -0.707110
vn -0.000000 -0.707107 -0.707107
vn -0.000000 -0.707107 -0.707107
vn -0.000000 -1.000000 -0.000000
vn -0.000000 -1.000000 -0.000000
vn 0.000000 -0.707108 0.707105
vn 0.000000 -0.707108 0.707105
vn 0.000000 0.000000 1.000000
vn 0.000000 0.000000 1.000000
vn 0.000000 0.707105 0.707108
vn 0.000000 0.707105 0.707108
vn 0.000000 1.000000 -0.000000
vn 0.000000 1.000000 -0.000000
vn 1.000000 0.000000 0.000000
vn 1.000000 0.000000 -0.000000
vn 1.000000 0.000000 0.000000
vn 1.000000 0.000000 0.000000
vn 1.000000 0.000000 0.000000
vn 1.000000 0.000000 0.000000
vn 1.000000 0.000000 0.000000
vn 1.000000 0.000000 0.000000
vn 1.000000 0.000000 -0.000000
s 1
g CheatFisher Furniture_for_boat FishingHandle
usemtl initialShadingGroup
f 49/122/105 50/127/106 58/103/107 57/104/108
f 50/127/106 51/126/109 59/106/110 58/103/107
f 51/126/109 52/118/111 60/120/112 59/106/110
f 52/119/111 53/125/113 61/110/114 60/108/112
f 53/125/113 54/124/115 62/112/116 61/110/114
f 54/124/115 55/123/117 63/114/118 62/112/116
f 55/123/117 56/121/119 64/116/120 63/114/118
f 56/121/119 49/122/105 57/104/108 64/116/120
s 2
f 50/102/121 49/101/122 65/117/123
f 51/105/124 50/102/121 65/117/123
f 52/107/125 51/105/124 65/117/123
f 53/109/126 52/107/125 65/117/123
f 54/111/127 53/109/126 65/117/123
f 55/113/128 54/111/127 65/117/123
f 56/115/129 55/113/128 65/117/123
f 49/101/122 56/115/129 65/117/123
g default
v -2.579438 1.671140 -2.228992
v -2.617435 1.671140 -2.244731
v -2.655432 1.671140 -2.228992
v -2.671171 1.671140 -2.190995
v -2.655432 1.671140 -2.152998
v -2.617435 1.671140 -2.137259
v -2.579438 1.671140 -2.152998
v -2.563699 1.671140 -2.190995
v -2.579438 1.802499 -2.228992
v -2.617435 1.802499 -2.244731
v -2.655432 1.802499 -2.228992
v -2.671171 1.802499 -2.190995
v -2.655432 1.802499 -2.152998
v -2.617435 1.802499 -2.137259
v -2.579438 1.802499 -2.152998
v -2.563699 1.802499 -2.190995
vt 0.698128 0.369940
vt 0.739172 0.369943
vt 0.739164 0.501034
vt 0.698119 0.501031
vt 0.780216 0.369945
vt 0.780208 0.501036
vt 0.821260 0.369948
vt 0.821251 0.501039
vt 0.862304 0.369950
vt 0.862296 0.501041
vt 0.903348 0.369952
vt 0.574987 0.501023
vt 0.616039 0.369935
vt 0.616031 0.501026
vt 0.657084 0.369937
vt 0.657075 0.501029
vt 0.574995 0.369932
vt 0.903341 0.501044
vn 0.707105 0.000000 -0.707108
vn 0.000000 0.000000 -1.000000
vn 0.000000 0.000000 -1.000000
vn 0.707105 0.000000 -0.707108
vn -0.707107 0.000000 -0.707107
vn -0.707107 0.000000 -0.707107
vn -1.000000 0.000000 0.000000
vn -1.000000 0.000000 0.000000
vn -0.707108 0.000000 0.707105
vn -0.707108 0.000000 0.707105
vn 0.000000 0.000000 1.000000
vn 0.000000 0.000000 1.000000
vn 0.707107 0.000000 0.707107
vn 0.707107 0.000000 0.707107
vn 1.000000 0.000000 0.000000
vn 1.000000 0.000000 0.000000
s 1
g CheatFisher Furniture_for_boat MiddleCylinder
usemtl initialShadingGroup
f 66/128/130 67/129/131 75/130/132 74/131/133
f 67/129/131 68/132/134 76/133/135 75/130/132
f 68/132/134 69/134/136 77/135/137 76/133/135
f 69/134/136 70/136/138 78/137/139 77/135/137
f 70/136/138 71/138/140 79/145/141 78/137/139
f 71/144/140 72/140/142 80/141/143 79/139/141
f 72/140/142 73/142/144 81/143/145 80/141/143
f 73/142/144 66/128/130 74/131/133 81/143/145
g default
v -2.740689 1.621077 -2.063104
v -2.499087 1.621077 -2.063104
v -2.740689 1.671140 -2.063104
v -2.499087 1.671140 -2.063104
v -2.740689 1.671140 -2.315713
v -2.499087 1.671140 -2.315713
v -2.740689 1.621077 -2.315713
v -2.499087 1.621077 -2.315713
vt 0.526950 0.212872
vt 0.346862 0.213039
vt 0.309546 0.213074
vt 0.339459 0.201731
vt 0.309721 0.401366
vt 0.534153 0.201731
vt 0.347038 0.401332
vt 0.527126 0.401164
vt 0.534153 0.015520
vt 0.572738 0.015520
vt 0.564442 0.401129
vt 0.572739 0.201730
vt 0.339459 0.015521
vt 0.564267 0.212837
vt 0.300874 0.015521
vt 0.300874 0.201731
vn 0.000000 0.000000 1.000000
vn 0.000000 0.000000 1.000000
vn 0.000000 0.000000 1.000000
vn 0.000000 0.000000 1.000000
vn 0.000000 1.000000 0.000000
vn 0.000000 1.000000 0.000000
vn 0.000000 1.000000 0.000000
vn 0.000000 1.000000 0.000000
vn 0.000000 0.000000 -1.000000
vn 0.000000 0.000000 -1.000000
vn 0.000000 0.000000 -1.000000
vn 0.000000 0.000000 -1.000000
vn 0.000000 -1.000000 0.000000
vn 0.000000 -1.000000 0.000000
vn 0.000000 -1.000000 0.000000
vn 0.000000 -1.000000 0.000000
vn 1.000000 0.000000 0.000000
vn 1.000000 0.000000 0.000000
vn 1.000000 0.000000 0.000000
vn 1.000000 0.000000 0.000000
vn -1.000000 0.000000 0.000000
vn -1.000000 0.000000 0.000000
vn -1.000000 0.000000 0.000000
vn -1.000000 0.000000 0.000000
s off
g CheatFisher Furniture_for_boat FenceTopHandle
usemtl initialShadingGroup
f 82/161/146 83/160/147 85/158/148 84/149/149
f 84/149/150 85/158/151 87/154/152 86/151/153
f 86/151/154 87/154/155 89/155/156 88/157/157
f 88/153/158 89/152/159 83/147/160 82/146/161
f 83/147/162 89/152/163 87/150/164 85/148/165
f 88/153/166 82/146/167 84/159/168 86/156/169
g default
v -2.740689 1.462605 -2.113168
v -2.499087 1.462605 -2.113168
v -2.740689 1.462605 -2.063104
v -2.499087 1.462605 -2.063104
v -2.740689 1.621077 -2.063104
v -2.499087 1.621077 -2.063104
v -2.740689 1.621077 -2.113168
v -2.499087 1.621077 -2.113168
vt 0.584776 0.208145
vt 0.861635 0.160570
vt 0.861644 0.208093
vt 0.632299 0.208137
vt 0.861672 0.358526
vt 0.632328 0.358569
vt 0.584804 0.358578
vt 0.861607 0.010138
vt 0.909196 0.358517
vt 0.632262 0.010181
vt 0.909167 0.208084
vt 0.632290 0.160613
vn 0.000000 -1.000000 0.000000
vn 0.000000 -1.000000 0.000000
vn 0.000000 -1.000000 0.000000
vn 0.000000 -1.000000 0.000000
vn 0.000000 0.000000 1.000000
vn 0.000000 0.000000 1.000000
vn 0.000000 0.000000 1.000000
vn 0.000000 0.000000 1.000000
vn 0.000000 -0.000000 -1.000000
vn 0.000000 -0.000000 -1.000000
vn 0.000000 -0.000000 -1.000000
vn 0.000000 -0.000000 -1.000000
vn 1.000000 0.000000 0.000000
vn 1.000000 0.000000 0.000000
vn 1.000000 0.000000 0.000000
vn 1.000000 0.000000 0.000000
vn -1.000000 0.000000 0.000000
vn -1.000000 0.000000 0.000000
vn -1.000000 0.000000 0.000000
vn -1.000000 0.000000 0.000000
s off
g CheatFisher Furniture_for_boat FenceSideHandle
usemtl initialShadingGroup
f 90/173/170 91/163/171 93/164/172 92/165/173
f 92/165/174 93/164/175 95/166/176 94/167/177
f 96/171/178 97/169/179 91/163/180 90/173/181
f 91/172/182 97/170/183 95/166/184 93/164/185
f 96/168/186 90/162/187 92/165/188 94/167/189
