# author: headus 3D tools
#  using: ply2obj v1.8
#   from: uvlayout v2.09.04
mtllib 0_Crack_3.mtl
# 180 vertices
v 0.2370000 0.0000000 1.4110000
v 0.4294200 0.0000000 1.0886710
v 0.2766799 0.0000019 0.8202070
v -0.3847390 0.0000019 0.5536349
v -0.3883789 0.0000000 1.1088970
v 0.3733578 0.0000019 0.4325590
v -0.2069060 0.0000030 0.1749628
v -0.2365790 0.0000000 -0.1771693
v 0.4999010 0.0000000 0.0032819
v -0.4760730 0.0000000 -0.7104914
v 0.6259759 0.0000000 -0.2730020
v 0.7187190 0.0000000 -0.6243232
v 0.6062129 0.0000000 -0.7676206
v -0.2513580 0.0000000 -1.1739958
v -0.1888510 0.0000000 -1.5157112
v 0.6739710 0.0000000 -1.2149562
v 0.6490020 0.0000000 -1.5867280
v -0.2152470 0.0000000 -2.0074912
v 0.4360400 0.0000000 -2.0070416
v 0.5409170 0.0000000 -2.4680384
v -0.3023690 0.0000000 -2.2886368
v 0.3952928 0.0000000 -2.7943452
v -0.3727760 0.0000000 -2.7996168
v 0.3270800 0.0000000 -3.1628100
v -0.3066570 0.0000000 -3.0896164
v -0.0689250 0.0000000 -3.4401440
v -0.1877860 0.0000000 -3.3466108
v -0.4331999 0.0000000 1.5912748
v 0.0627290 0.0000000 1.7406480
v -0.1790520 0.0000000 2.0870769
v -0.5736130 0.0000000 1.9878778
v -0.5442530 0.0000000 2.2497120
v 0.0090580 0.0000000 2.7556677
v -0.5562010 0.0000000 2.6817457
v -0.4555420 0.0000000 2.9191001
v 0.0142630 0.0000000 3.3880292
v 0.1833251 0.0000000 3.1717554
v 0.1435460 0.0000000 2.8845492
v -0.0148760 0.0000000 3.9357586
v -0.6045710 0.0000000 3.4447210
v -0.5000620 0.0000000 3.5667400
v -0.4395350 0.0000000 4.0984030
v -0.1927289 0.0000000 4.1538920
v -0.1286000 0.0000000 4.3394400
v -0.4002870 0.0000000 4.4258982
v -0.0689250 0.0000000 -3.4401440
v 0.3270800 0.0000000 -3.1628100
v 0.3952928 0.0000000 -2.7943452
v 0.5409170 0.0000000 -2.4680384
v 0.4360400 0.0000000 -2.0070416
v 0.6490020 0.0000000 -1.5867280
v 0.6739710 0.0000000 -1.2149562
v 0.6062129 0.0000000 -0.7676206
v 0.7187190 0.0000000 -0.6243232
v 0.6259759 0.0000000 -0.2730020
v 0.4999010 0.0000000 0.0032819
v 0.3733578 0.0000000 0.4325590
v 0.2766799 0.0000000 0.8202070
v 0.4294200 0.0000000 1.0886710
v 0.2370000 0.0000000 1.4110000
v 0.0627290 0.0000000 1.7406480
v -0.1790520 0.0000000 2.0870769
v 0.0090580 0.0000000 2.7556677
v 0.1435460 0.0000000 2.8845492
v 0.1833251 0.0000000 3.1717554
v 0.0142630 0.0000000 3.3880292
v -0.0148760 0.0000000 3.9357586
v -0.1927289 0.0000000 4.1538920
v -0.1286000 0.0000000 4.3394400
v -0.4002870 0.0000000 4.4258982
v -0.4395350 0.0000000 4.0984030
v -0.5000620 0.0000000 3.5667400
v -0.6045710 0.0000000 3.4447210
v -0.4555420 0.0000000 2.9191001
v -0.5562010 0.0000000 2.6817457
v -0.5442530 0.0000000 2.2497120
v -0.5736130 0.0000000 1.9878778
v -0.4331999 0.0000000 1.5912748
v -0.3883789 0.0000000 1.1088970
v -0.3847390 0.0000000 0.5536349
v -0.2069060 0.0000000 0.1749628
v -0.2365790 0.0000000 -0.1771693
v -0.4760730 0.0000000 -0.7104914
v -0.2513580 0.0000000 -1.1739958
v -0.1888510 0.0000000 -1.5157112
v -0.2152470 0.0000000 -2.0074912
v -0.3023690 0.0000000 -2.2886368
v -0.3727760 0.0000000 -2.7996168
v -0.3066570 0.0000000 -3.0896164
v -0.1877860 0.0000000 -3.3466108
v 0.2370000 -6.0000000 1.4110000
v 0.4294200 -6.0000000 1.0886710
v 0.2766799 -6.0000000 0.8202070
v -0.4002870 -6.0000000 4.4258982
v -0.1286000 -6.0000000 4.3394400
v -0.4395350 -6.0000000 4.0984030
v -0.1927289 -6.0000000 4.1538920
v -0.5000620 -6.0000000 3.5667400
v -0.0148760 -6.0000000 3.9357586
v 0.7187190 -6.0000000 -0.6243232
v 0.6062129 -6.0000000 -0.7676206
v 0.6259759 -6.0000000 -0.2730020
v -0.1877860 -6.0000000 -3.3466108
v -0.3066570 -6.0000000 -3.0896164
v -0.0689250 -6.0000000 -3.4401440
v 0.3270800 -6.0000000 -3.1628116
v 0.6739710 -6.0000000 -1.2149562
v 0.6490020 -6.0000000 -1.5867280
v 0.1435460 -6.0000000 2.8845492
v 0.0090580 -6.0000000 2.7556677
v 0.1833251 -6.0000000 3.1717554
v 0.0142630 -6.0000000 3.3880292
v -0.4555420 -6.0000000 2.9191001
v 0.3952928 -6.0000000 -2.7943452
v -0.3727760 -6.0000000 -2.7996168
v -0.3023690 -6.0000000 -2.2886388
v -0.2152470 -6.0000000 -2.0074920
v 0.5409170 -6.0000000 -2.4680384
v -0.4331999 -6.0000000 1.5912748
v -0.5736130 -6.0000000 1.9878778
v -0.5442530 -6.0000000 2.2497120
v -0.1790520 -6.0000000 2.0870769
v -0.6045710 -6.0000000 3.4447210
v -0.5562010 -6.0000000 2.6817457
v 0.4360400 -6.0000000 -2.0070416
v -0.1888510 -6.0000000 -1.5157102
v -0.2513580 -6.0000000 -1.1739958
v 0.4999010 -6.0000000 0.0032819
v -0.2365790 -6.0000000 -0.1771693
v -0.2069060 -6.0000000 0.1749628
v 0.3733578 -6.0000000 0.4325590
v -0.3847390 -6.0000000 0.5536349
v -0.3883789 -6.0000000 1.1088970
v 0.0627290 -6.0000000 1.7406480
v -0.4760730 -6.0000000 -0.7104914
v 0.4294200 -6.0000000 1.0886710
v 0.2766799 -6.0000000 0.8202070
v 0.2370000 -6.0000000 1.4110000
v -0.3847390 -6.0000000 0.5536349
v -0.3883789 -6.0000000 1.1088970
v 0.0627290 -6.0000000 1.7406480
v -0.4331999 -6.0000000 1.5912748
v -0.1790520 -6.0000000 2.0870769
v -0.5736130 -6.0000000 1.9878778
v -0.5442530 -6.0000000 2.2497120
v 0.0090580 -6.0000000 2.7556677
v 0.0142630 -6.0000000 3.3880292
v 0.1833251 -6.0000000 3.1717554
v -0.0148760 -6.0000000 3.9357586
v -0.5000620 -6.0000000 3.5667400
v -0.4395350 -6.0000000 4.0984030
v -0.1927289 -6.0000000 4.1538920
v -0.1286000 -6.0000000 4.3394400
v -0.4002870 -6.0000000 4.4258982
v -0.4555420 -6.0000000 2.9191001
v -0.6045710 -6.0000000 3.4447210
v 0.1435460 -6.0000000 2.8845492
v -0.5562010 -6.0000000 2.6817457
v -0.2069060 -6.0000000 0.1749628
v 0.3733578 -6.0000000 0.4325590
v 0.4999010 -6.0000000 0.0032819
v -0.2365790 -6.0000000 -0.1771693
v -0.4760730 -6.0000000 -0.7104914
v -0.2513580 -6.0000000 -1.1739958
v -0.1888510 -6.0000000 -1.5157102
v 0.6490020 -6.0000000 -1.5867280
v 0.4360400 -6.0000000 -2.0070416
v -0.2152470 -6.0000000 -2.0074920
v 0.5409170 -6.0000000 -2.4680384
v 0.3952928 -6.0000000 -2.7943452
v -0.3023690 -6.0000000 -2.2886388
v -0.3727760 -6.0000000 -2.7996168
v -0.3066570 -6.0000000 -3.0896164
v 0.3270800 -6.0000000 -3.1628116
v -0.0689250 -6.0000000 -3.4401440
v -0.1877860 -6.0000000 -3.3466108
v 0.6739710 -6.0000000 -1.2149562
v 0.6062129 -6.0000000 -0.7676206
v 0.6259759 -6.0000000 -0.2730020
v 0.7187190 -6.0000000 -0.6243232
# 222 normals
vn 0.000000 1.000000 0.000000
vn 0.000000 1.000000 0.000000
vn 0.000000 1.000000 0.000000
vn 0.000000 1.000000 0.000000
vn 0.000000 1.000000 0.000000
vn 0.000000 1.000000 0.000000
vn 0.000000 1.000000 0.000000
vn 0.000000 1.000000 0.000000
vn 0.000000 1.000000 0.000000
vn 0.000000 1.000000 0.000000
vn 0.000000 1.000000 0.000000
vn 0.000000 1.000000 0.000000
vn 0.000000 1.000000 0.000000
vn 0.000000 1.000000 0.000000
vn 0.000000 1.000000 0.000000
vn 0.000000 1.000000 0.000000
vn 0.000000 1.000000 0.000000
vn 0.000000 1.000000 0.000000
vn 0.000000 1.000000 0.000000
vn 0.000000 1.000000 0.000000
vn 0.000000 1.000000 0.000000
vn 0.000000 1.000000 0.000000
vn 0.000000 1.000000 0.000000
vn 0.000000 1.000000 0.000000
vn 0.000000 1.000000 0.000000
vn 0.000000 1.000000 0.000000
vn 0.000000 1.000000 0.000000
vn 0.000000 1.000000 0.000000
vn 0.000000 1.000000 0.000000
vn 0.000000 1.000000 0.000000
vn 0.000000 1.000000 0.000000
vn 0.000000 1.000000 0.000000
vn 0.000000 1.000000 0.000000
vn 0.000000 1.000000 0.000000
vn 0.000000 1.000000 0.000000
vn 0.000000 1.000000 0.000000
vn 0.000000 1.000000 0.000000
vn 0.000000 1.000000 0.000000
vn 0.000000 1.000000 0.000000
vn 0.000000 1.000000 0.000000
vn 0.000000 1.000000 0.000000
vn 0.000000 1.000000 0.000000
vn 0.000000 1.000000 0.000000
vn 0.000000 1.000000 0.000000
vn 0.000000 1.000000 0.000000
vn 0.871422 0.000000 0.490173
vn 0.871422 0.000000 0.490173
vn 0.858634 0.000000 0.512452
vn 0.858634 0.000000 0.512452
vn 0.869133 0.000000 -0.494354
vn 0.869133 0.000000 -0.494354
vn 0.869133 0.000000 -0.494354
vn 0.869133 0.000000 -0.494354
vn 0.303150 0.000000 0.952909
vn 0.303150 0.000000 0.952909
vn 0.303150 0.000000 0.952909
vn 0.303150 0.000000 0.952909
vn -0.993286 0.000000 0.115211
vn -0.993286 0.000000 0.115211
vn -0.992767 0.000000 0.118873
vn -0.992767 0.000000 0.118873
vn 0.945096 0.000000 -0.326527
vn 0.945096 0.000000 -0.326527
vn 0.945096 0.000000 -0.326527
vn 0.945096 0.000000 -0.326527
vn -0.993530 0.000000 0.113013
vn -0.993530 0.000000 0.113013
vn 0.786517 0.000000 -0.617378
vn 0.786517 0.000000 -0.617378
vn 0.786517 0.000000 -0.617378
vn 0.786517 0.000000 -0.617378
vn 0.944119 0.000000 0.329091
vn 0.944119 0.000000 0.329091
vn 0.966795 0.000000 0.255081
vn 0.966795 0.000000 0.255081
vn -0.827596 0.000000 -0.561161
vn -0.827596 0.000000 -0.561161
vn -0.947293 0.000000 -0.320302
vn -0.947293 0.000000 -0.320302
vn -0.618385 0.000000 -0.785692
vn -0.618385 0.000000 -0.785692
vn 0.573613 0.000000 -0.818959
vn 0.573613 0.000000 -0.818959
vn 0.573613 0.000000 -0.818959
vn 0.573613 0.000000 -0.818959
vn 0.988586 0.000000 0.149759
vn 0.988586 0.000000 0.149759
vn 0.998505 0.000000 0.052097
vn 0.998505 0.000000 0.052097
vn 0.957547 0.000000 -0.287646
vn 0.957547 0.000000 -0.287646
vn 0.691754 0.000000 -0.721968
vn 0.691754 0.000000 -0.721968
vn 0.691754 0.000000 -0.721968
vn 0.691754 0.000000 -0.721968
vn 0.990417 0.000000 -0.137185
vn 0.990417 0.000000 -0.137185
vn 0.990417 0.000000 -0.137185
vn 0.990417 0.000000 -0.137185
vn 0.787707 0.000000 0.615730
vn 0.787707 0.000000 0.615730
vn 0.787707 0.000000 0.615730
vn 0.787707 0.000000 0.615730
vn 0.955625 0.000000 -0.293994
vn 0.955625 0.000000 -0.293994
vn 0.983123 0.000000 -0.182018
vn 0.983123 0.000000 -0.182018
vn -0.999939 0.000000 0.005219
vn -0.999939 0.000000 0.005219
vn 0.775011 0.000000 0.631875
vn 0.775011 0.000000 0.631875
vn 0.775011 0.000000 0.631875
vn 0.775011 0.000000 0.631875
vn -0.980651 0.000000 0.194867
vn -0.980651 0.000000 0.194867
vn -0.989349 0.000000 0.145273
vn -0.989349 0.000000 0.145273
vn 0.913142 0.000000 -0.407373
vn 0.913142 0.000000 -0.407373
vn -0.978484 0.000000 -0.206037
vn -0.978484 0.000000 -0.206037
vn -0.986053 0.000000 -0.166270
vn -0.986053 0.000000 -0.166270
vn -0.999634 0.000000 0.024995
vn -0.999634 0.000000 0.024995
vn -0.759446 0.000000 0.650400
vn -0.759446 0.000000 0.650400
vn -0.759446 0.000000 0.650400
vn -0.759446 0.000000 0.650400
vn -0.962034 0.000000 -0.272600
vn -0.962034 0.000000 -0.272600
vn -0.962034 0.000000 -0.272600
vn -0.962034 0.000000 -0.272600
vn -0.991302 0.000000 0.131295
vn -0.991302 0.000000 0.131295
vn -0.920497 0.000000 0.390405
vn -0.920497 0.000000 0.390405
vn 0.974944 0.000000 0.221663
vn 0.974944 0.000000 0.221663
vn 0.974944 0.000000 0.221663
vn 0.974944 0.000000 0.221663
vn -0.998932 0.000000 -0.043277
vn -0.998932 0.000000 -0.043277
vn 0.891992 0.000000 -0.451932
vn 0.891992 0.000000 -0.451932
vn -0.941708 0.000000 -0.335897
vn -0.941708 0.000000 -0.335897
vn 0.941403 0.000000 0.336935
vn 0.941403 0.000000 0.336935
vn -0.956754 0.000000 0.290820
vn -0.956754 0.000000 0.290820
vn -0.980010 0.000000 -0.198682
vn -0.980010 0.000000 -0.198682
vn 0.964628 0.000000 0.263566
vn 0.964628 0.000000 0.263566
vn 0.970244 0.000000 0.241867
vn 0.970244 0.000000 0.241867
vn -0.981597 0.000000 -0.190716
vn -0.981597 0.000000 -0.190716
vn -0.998749 0.000000 -0.046573
vn -0.998749 0.000000 -0.046573
vn 0.851584 0.000000 0.523958
vn 0.851584 0.000000 0.523958
vn 0.820027 0.000000 0.572240
vn 0.820027 0.000000 0.572240
vn 0.962614 0.000000 -0.270677
vn 0.962614 0.000000 -0.270677
vn 0.962614 0.000000 -0.270677
vn 0.962614 0.000000 -0.270677
vn 0.998444 0.000000 0.053043
vn 0.998444 0.000000 0.053043
vn 0.998444 0.000000 0.053043
vn 0.998444 0.000000 0.053043
vn -0.899805 0.000000 -0.436245
vn -0.899805 0.000000 -0.436245
vn -0.912135 0.000000 0.409510
vn -0.912135 0.000000 0.409510
vn 0.000000 -1.000000 0.000000
vn 0.000000 -1.000000 0.000000
vn 0.000000 -1.000000 0.000000
vn 0.000000 -1.000000 0.000000
vn 0.000000 -1.000000 0.000000
vn 0.000000 -1.000000 0.000000
vn 0.000000 -1.000000 0.000000
vn 0.000000 -1.000000 0.000000
vn 0.000000 -1.000000 0.000000
vn 0.000000 -1.000000 0.000000
vn 0.000000 -1.000000 0.000000
vn 0.000000 -1.000000 0.000000
vn 0.000000 -1.000000 0.000000
vn 0.000000 -1.000000 0.000000
vn 0.000000 -1.000000 0.000000
vn 0.000000 -1.000000 0.000000
vn 0.000000 -1.000000 0.000000
vn 0.000000 -1.000000 0.000000
vn 0.000000 -1.000000 0.000000
vn 0.000000 -1.000000 0.000000
vn 0.000000 -1.000000 0.000000
vn 0.000000 -1.000000 0.000000
vn 0.000000 -1.000000 0.000000
vn 0.000000 -1.000000 0.000000
vn 0.000000 -1.000000 0.000000
vn 0.000000 -1.000000 0.000000
vn 0.000000 -1.000000 0.000000
vn 0.000000 -1.000000 0.000000
vn 0.000000 -1.000000 0.000000
vn 0.000000 -1.000000 0.000000
vn 0.000000 -1.000000 0.000000
vn 0.000000 -1.000000 0.000000
vn 0.000000 -1.000000 0.000000
vn 0.000000 -1.000000 0.000000
vn 0.000000 -1.000000 0.000000
vn 0.000000 -1.000000 0.000000
vn 0.000000 -1.000000 0.000000
vn 0.000000 -1.000000 0.000000
vn 0.000000 -1.000000 0.000000
vn 0.000000 -1.000000 0.000000
vn 0.000000 -1.000000 0.000000
vn 0.000000 -1.000000 0.000000
vn 0.000000 -1.000000 0.000000
vn 0.000000 -1.000000 0.000000
vn 0.000000 -1.000000 0.000000
# 182 uv coords
vt 0.943414 0.641190
vt 0.932498 0.622605
vt 0.941385 0.607262
vt 0.979449 0.592144
vt 0.979453 0.624081
vt 0.935955 0.585049
vt 0.969299 0.570287
vt 0.981806 0.651820
vt 0.953264 0.660189
vt 0.970958 0.549971
vt 0.928696 0.560494
vt 0.966994 0.680199
vt 0.984536 0.519166
vt 0.989704 0.674649
vt 0.987918 0.689661
vt 0.921374 0.544697
vt 0.971417 0.492545
vt 0.955988 0.718589
vt 0.915943 0.524551
vt 0.922359 0.516294
vt 0.967615 0.472851
vt 0.988480 0.714471
vt 0.982638 0.728066
vt 0.955605 0.754939
vt 0.945919 0.742475
vt 0.918223 0.490663
vt 0.919449 0.469322
vt 0.968733 0.444491
vt 0.931331 0.445112
vt 0.948242 0.725979
vt 0.957251 0.786422
vt 0.924819 0.418816
vt 0.991153 0.758261
vt 0.985141 0.765258
vt 0.981645 0.795777
vt 0.973428 0.428198
vt 0.932780 0.399965
vt 0.967470 0.798963
vt 0.976867 0.398737
vt 0.963791 0.809627
vt 0.936217 0.378743
vt 0.972701 0.382144
vt 0.979401 0.814587
vt 0.958591 0.362319
vt 0.965534 0.367537
vt 0.787217 0.350449
vt 0.765660 0.350449
vt 0.765608 0.005824
vt 0.787177 0.005824
vt 0.808628 0.350449
vt 0.808604 0.005824
vt 0.747917 0.350449
vt 0.747867 0.005824
vt 0.832890 0.350451
vt 0.832872 0.005826
vt 0.724964 0.350449
vt 0.724925 0.005824
vt 0.872783 0.350451
vt 0.872768 0.005826
vt 0.699257 0.350449
vt 0.699219 0.005824
vt 0.883475 0.350453
vt 0.883475 0.005828
vt 0.681815 0.350449
vt 0.681772 0.005824
vt 0.900129 0.350455
vt 0.900131 0.005830
vt 0.660941 0.350449
vt 0.660905 0.005822
vt 0.915904 0.350457
vt 0.915893 0.005830
vt 0.650470 0.350447
vt 0.650447 0.005821
vt 0.947415 0.350455
vt 0.947394 0.005830
vt 0.624476 0.350445
vt 0.624464 0.005819
vt 0.963586 0.350455
vt 0.963554 0.005830
vt 0.603080 0.350443
vt 0.603059 0.005819
vt 0.974870 0.350455
vt 0.974824 0.005828
vt 0.576021 0.350445
vt 0.575990 0.005819
vt 0.991198 0.005828
vt 0.991251 0.350453
vt 0.548871 0.350445
vt 0.548833 0.005819
vt 0.528348 0.350445
vt 0.528310 0.005821
vt 0.506823 0.350445
vt 0.506789 0.005821
vt 0.479054 0.350449
vt 0.479023 0.005822
vt 0.470365 0.350449
vt 0.470341 0.005822
vt 0.454101 0.350449
vt 0.454082 0.005824
vt 0.437019 0.350447
vt 0.436997 0.005822
vt 0.407400 0.350449
vt 0.407369 0.005824
vt 0.390495 0.350449
vt 0.390467 0.005824
vt 0.362204 0.350449
vt 0.362190 0.005824
vt 0.342250 0.350447
vt 0.342241 0.005821
vt 0.312664 0.350445
vt 0.312659 0.005819
vt 0.279083 0.350443
vt 0.279087 0.005817
vt 0.258783 0.350441
vt 0.258799 0.005817
vt 0.234747 0.350437
vt 0.234783 0.005812
vt 0.202854 0.350431
vt 0.202892 0.005806
vt 0.175036 0.350427
vt 0.175063 0.005803
vt 0.150881 0.350424
vt 0.150890 0.005799
vt 0.135756 0.350424
vt 0.135749 0.005797
vt 0.110940 0.350424
vt 0.110918 0.005797
vt 0.096139 0.350424
vt 0.096104 0.005797
vt 0.064763 0.350426
vt 0.064724 0.005801
vt 0.055539 0.350426
vt 0.055490 0.005801
vt 0.024815 0.350431
vt 0.024747 0.005806
vt 0.005874 0.350435
vt 0.005797 0.005810
vt 0.055549 0.781215
vt 0.064474 0.796536
vt 0.053603 0.815147
vt 0.017529 0.798110
vt 0.017454 0.766172
vt 0.043790 0.834174
vt 0.015238 0.825847
vt 0.027563 0.744285
vt 0.060926 0.759003
vt 0.030082 0.854215
vt 0.068155 0.734458
vt 0.025888 0.723949
vt 0.009156 0.863673
vt 0.007360 0.848673
vt 0.012311 0.693123
vt 0.041052 0.892638
vt 0.025448 0.666483
vt 0.075473 0.718669
vt 0.051072 0.916550
vt 0.041357 0.929002
vt 0.008561 0.888475
vt 0.014388 0.902073
vt 0.029276 0.646770
vt 0.080902 0.698526
vt 0.074489 0.690269
vt 0.039627 0.960488
vt 0.048784 0.900048
vt 0.065618 0.619101
vt 0.077445 0.643312
vt 0.028216 0.618383
vt 0.078648 0.664649
vt 0.015205 0.969777
vt 0.011794 0.939253
vt 0.005797 0.932245
vt 0.072212 0.592843
vt 0.029371 0.973002
vt 0.064325 0.573974
vt 0.023575 0.602063
vt 0.033016 0.983680
vt 0.020246 0.572582
vt 0.017390 0.988591
vt 0.024482 0.556000
vt 0.060975 0.552744
vt 0.038671 0.536232
vt 0.031706 0.541423
# 105 polygons
usemtl 0_svgBlinn2SG
s 0_1
g 0_Crack_3 0_Crack_Top_3
f 1/1/1 2/2/2 3/3/3
f 45/43/4 44/40/5 42/35/6
f 44/40/5 43/38/7 42/35/6
f 41/34/8 42/35/6 39/31/9
f 12/19/10 13/20/11 11/16/12
f 27/45/13 25/42/14 26/44/15
f 24/41/16 26/44/15 25/42/14
f 13/20/11 16/26/17 17/27/18
f 38/30/19 33/18/20 37/25/21
f 36/24/22 37/25/21 33/18/20 35/23/23
f 22/37/24 24/41/16 25/42/14 23/39/25
f 43/38/7 39/31/9 42/35/6
f 22/37/24 23/39/25 21/36/26
f 22/37/24 21/36/26 18/28/27 20/32/28
f 28/8/29 31/14/30 32/15/31 30/12/32
f 40/33/33 41/34/8 35/23/23
f 34/22/34 35/23/23 32/15/31
f 20/32/28 18/28/27 19/29/35
f 19/29/35 18/28/27 15/21/36 17/27/18
f 13/20/11 17/27/18 15/21/36 14/17/37
f 11/16/12 13/20/11 9/11/38
f 9/11/38 8/10/39 7/7/40 6/6/41
f 3/3/3 6/6/41 7/7/40 4/4/42
f 3/3/3 4/4/42 5/5/43 1/1/1
f 1/1/1 5/5/43 28/8/29 29/9/44
f 29/9/44 28/8/29 30/12/32
f 30/12/32 32/15/31 35/23/23 33/18/20
f 36/24/22 35/23/23 41/34/8 39/31/9
f 13/20/11 14/17/37 10/13/45
f 9/11/38 13/20/11 10/13/45 8/10/39
g 0_Crack_3 0_Crack_Wall_3
f 60/49/46 91/46/47 92/47/48 59/48/49
s 0_off
f 59/48/50 92/47/51 93/52/52 58/53/53
f 70/86/54 94/87/55 95/82/56 69/83/57
s 0_2
f 71/135/58 96/134/59 94/136/60 70/137/61
s 0_off
f 69/83/62 95/82/63 97/78/64 68/79/65
s 0_2
f 72/133/66 98/132/67 96/134/59 71/135/58
s 0_off
f 54/69/68 100/68/69 101/72/70 53/73/71
s 0_3
f 55/65/72 102/64/73 100/68/74 54/69/75
s 0_4
f 90/97/76 103/96/77 104/98/78 89/99/79
f 46/95/80 105/94/81 103/96/77 90/97/76
s 0_off
f 47/93/82 106/92/83 105/94/84 46/95/85
s 0_5
f 53/73/86 101/72/87 107/76/88 52/77/89
f 52/77/89 107/76/88 108/80/90 51/81/91
s 0_off
f 64/63/92 109/62/93 110/58/94 63/59/95
f 65/67/96 111/66/97 109/62/98 64/63/99
f 66/71/100 112/70/101 111/66/102 65/67/103
s 0_6
f 48/91/104 114/90/105 106/92/106 47/93/107
s 0_4
f 89/99/79 104/98/78 115/100/108 88/101/109
s 0_off
f 68/79/110 97/78/111 99/74/112 67/75/113
s 0_4
f 88/101/109 115/100/108 116/102/114 87/103/115
f 87/103/115 116/102/114 117/104/116 86/105/117
s 0_6
f 49/89/118 118/88/119 114/90/105 48/91/104
s 0_7
f 78/121/120 119/120/121 120/122/122 77/123/123
f 77/123/123 120/122/122 121/124/124 76/125/125
s 0_off
f 73/131/126 123/130/127 98/132/128 72/133/129
f 74/129/130 113/128/131 123/130/132 73/131/133
s 0_7
f 75/127/134 124/126/135 113/128/136 74/129/137
f 76/125/125 121/124/124 124/126/135 75/127/134
s 0_off
f 50/85/138 125/84/139 118/88/140 49/89/141
s 0_4
f 86/105/117 117/104/116 126/106/142 85/107/143
s 0_5
f 51/81/91 108/80/90 125/84/144 50/85/145
s 0_4
f 85/107/143 126/106/142 127/108/146 84/109/147
s 0_3
f 56/61/148 128/60/149 102/64/73 55/65/72
s 0_7
f 82/113/150 129/112/151 130/114/152 81/115/153
s 0_3
f 57/57/154 131/56/155 128/60/149 56/61/148
f 58/53/156 93/52/157 131/56/155 57/57/154
s 0_7
f 81/115/153 130/114/152 132/116/158 80/117/159
f 80/117/159 132/116/158 133/118/160 79/119/161
f 79/119/161 133/118/160 119/120/121 78/121/120
s 0_1
f 61/51/162 134/50/163 91/46/47 60/49/46
f 62/55/164 122/54/165 134/50/163 61/51/162
s 0_off
f 63/59/166 110/58/167 122/54/168 62/55/169
f 67/75/170 99/74/171 112/70/172 66/71/173
s 0_4
f 84/109/147 127/108/146 135/110/174 83/111/175
s 0_7
f 83/111/176 135/110/177 129/112/151 82/113/150
s 0_1
g 0_Crack_3 0_Crack_Floor_3
f 138/140/178 137/138/179 136/139/180
f 154/178/181 151/169/182 153/176/183
f 153/176/183 151/169/182 152/173/184
f 150/170/185 149/163/186 151/169/182
f 180/161/187 179/155/188 178/162/189
f 176/182/190 175/181/191 173/179/192
f 174/180/193 173/179/192 175/181/191
f 178/162/189 166/166/194 177/168/195
f 157/164/196 148/156/197 146/153/198
f 147/157/199 155/159/200 146/153/198 148/156/197
f 170/174/201 172/177/202 173/179/192 174/180/193
f 152/173/184 151/169/182 149/163/186
f 170/174/201 171/175/203 172/177/202
f 170/174/201 169/172/204 168/167/205 171/175/203
f 142/144/206 143/147/207 145/150/208 144/151/209
f 156/171/210 155/159/200 150/170/185
f 158/158/211 145/150/208 155/159/200
f 169/172/204 167/165/212 168/167/205
f 167/165/212 166/166/194 165/160/213 168/167/205
f 178/162/189 164/154/214 165/160/213 166/166/194
f 179/155/188 161/148/215 178/162/189
f 161/148/215 160/146/216 159/145/217 162/149/218
f 137/138/179 139/142/219 159/145/217 160/146/216
f 137/138/179 138/140/178 140/141/220 139/142/219
f 138/140/178 141/143/221 142/144/206 140/141/220
f 141/143/221 143/147/207 142/144/206
f 143/147/207 146/153/198 155/159/200 145/150/208
f 147/157/199 149/163/186 150/170/185 155/159/200
f 178/162/189 163/152/222 164/154/214
f 161/148/215 162/149/218 163/152/222 178/162/189
# totals: 180 182 222 105
