# This file uses centimeters as units for non-parametric coordinates.

mtllib Godray_Plane.mtl
g default
v -1.767767 -1.060660 -0.000000
v -1.060660 -1.767767 -0.000000
v 1.060660 1.767767 0.000000
v 1.767767 1.060660 0.000000
vt 0.000000 0.000000
vt 1.000000 0.000000
vt 0.000000 1.000000
vt 1.000000 1.000000
vn -0.000000 -0.000000 1.000000
vn -0.000000 -0.000000 1.000000
vn -0.000000 -0.000000 1.000000
vn -0.000000 -0.000000 1.000000
s off
g GodRay_Plane
usemtl initialShadingGroup
f 1/1/1 2/2/2 4/4/3 3/3/4
