# author: headus 3D tools
#  using: ply2obj v1.8
#   from: uvlayout v2.09.04
mtllib Ground_Cracks_1.mtl
# 204 vertices
v 0.1640000 0.0000000 -0.2970000
v 1.3472272 0.0000000 0.1077779
v -0.2941550 0.0000000 -0.6034629
v 1.7628893 0.0000000 1.0677351
v -0.6287320 0.0000000 -0.8525810
v -0.1585250 0.0000000 1.5361430
v -0.7015529 0.0000000 0.4324960
v -0.9903793 0.0000000 3.6259340
v -1.4753131 0.0000000 2.2039632
v -0.2794910 0.0000000 2.5081204
v -1.4257931 0.0000000 1.1739818
v -1.2379829 0.0000000 0.3184090
v 1.0402830 0.0000000 -1.9885810
v 1.3995488 0.0000000 -1.6694431
v -0.2927300 0.0000000 -1.9227950
v -0.7322450 0.0000000 -2.2889794
v -1.7825572 0.0000000 -1.4143600
v -1.2326661 0.0000000 -1.3770050
v -1.5889022 0.0000000 0.0167000
v -2.0889744 0.0000000 -0.6960950
v -1.7713442 0.0000000 -2.0152988
v 2.1800236 0.0000000 -1.3526960
v 2.9035742 0.0000000 -1.1540390
v 2.5924614 0.0000000 0.0210330
v 2.7701912 0.0000000 0.6067390
v 0.0845721 0.0000000 2.9709666
v 1.0393421 0.0000000 2.0351570
v 1.1375891 0.0000000 2.8040122
v 0.4893880 0.0000000 3.5524112
v 1.1627500 0.0000000 3.4856712
v 1.5461809 0.0000000 2.5692930
v 1.8632850 0.0000000 2.9737510
v 2.5588550 0.0000000 3.8213836
v 3.1477974 0.0000000 3.6685372
v 3.6423752 0.0000000 3.3541144
v 3.3089034 0.0000000 2.3422354
v 3.2605972 0.0000000 1.4999580
v 3.6137704 0.0000000 2.0279730
v 3.2223032 0.0000000 -0.1886321
v -1.8230932 0.0000000 2.5102150
v -3.2384252 0.0000000 1.7231022
v -2.6789580 0.0000000 1.7504712
v -3.1876440 0.0000000 2.4362480
v -3.6112804 0.0000000 2.2379920
v -3.6419272 0.0000000 1.6379072
v -2.2081518 0.0000000 3.0561106
v -3.2973720 0.0000000 2.9725322
v -3.6356780 0.0000000 3.4260944
v -2.8999412 0.0000000 4.0188224
v -2.5924292 0.0000000 0.6840400
v -3.2582472 0.0000000 1.2119192
v -3.0851782 0.0000000 0.2876850
v -3.3946144 0.0000000 0.6031071
v -3.4605380 0.0000000 0.0749590
v -0.2927300 0.0000000 -1.9227950
v 1.0402830 0.0000000 -1.9885810
v 1.3995488 0.0000000 -1.6694431
v 2.1800236 0.0000000 -1.3526960
v 2.9035742 0.0000000 -1.1540390
v 3.2223032 0.0000000 -0.1886321
v 2.5924614 0.0000000 0.0210330
v 2.7701912 0.0000000 0.6067390
v 3.2605972 0.0000000 1.4999580
v 3.6137704 0.0000000 2.0279730
v 3.3089034 0.0000000 2.3422354
v 3.6423752 0.0000000 3.3541144
v 3.1477974 0.0000000 3.6685372
v 2.5588550 0.0000000 3.8213836
v 2.2148132 0.0000000 3.4228700
v 1.8632850 0.0000000 2.9737510
v 1.5461809 0.0000000 2.5692930
v 1.0393421 0.0000000 2.0351570
v 1.1375891 0.0000000 2.8040122
v 1.1627500 0.0000000 3.4856712
v 0.4893880 0.0000000 3.5524112
v 0.0845721 0.0000000 2.9709666
v -0.2794910 0.0000000 2.5081204
v -0.9903793 0.0000000 3.6259340
v -1.4753131 0.0000000 2.2039632
v -1.8230932 0.0000000 2.5102150
v -2.2081518 0.0000000 3.0561106
v -2.8999412 0.0000000 4.0188224
v -3.6356780 0.0000000 3.4260944
v -3.2973720 0.0000000 2.9725322
v -3.1876440 0.0000000 2.4362480
v -3.6112804 0.0000000 2.2379920
v -3.6419272 0.0000000 1.6379072
v -3.2384252 0.0000000 1.7231022
v -2.6789580 0.0000000 1.7504712
v -3.2582472 0.0000000 1.2119192
v -3.3946144 0.0000000 0.6031071
v -3.4605380 0.0000000 0.0749590
v -3.0851782 0.0000000 0.2876850
v -2.5924292 0.0000000 0.6840400
v -1.4257931 0.0000000 1.1739818
v -1.2379829 0.0000000 0.3184090
v -1.5889022 0.0000000 0.0167000
v -2.0889744 0.0000000 -0.6960950
v -1.7825572 0.0000000 -1.4143600
v -1.2326661 0.0000000 -1.3770050
v -1.7713442 0.0000000 -2.0152988
v -0.7322450 0.0000000 -2.2889794
v -0.2794910 -3.0000000 2.5081204
v -0.9903793 -3.0000000 3.6259340
v -1.4753131 -3.0000000 2.2039632
v -3.4605380 -3.0000000 0.0749590
v -3.0851782 -3.0000000 0.2876850
v -3.3946144 -3.0000000 0.6031071
v -3.2582472 -3.0000000 1.2119192
v -2.5924292 -3.0000000 0.6840400
v -2.6789580 -3.0000000 1.7504712
v -1.4257931 -3.0000000 1.1739818
v -1.7713442 -3.0000000 -2.0152988
v -0.7322450 -3.0000000 -2.2889794
v -1.2326661 -3.0000000 -1.3770050
v 2.9035742 -3.0000000 -1.1540390
v 3.2223032 -3.0000000 -0.1886321
v 2.5924614 -3.0000000 0.0210330
v -0.2927300 -3.0000000 -1.9227950
v -3.6419272 -3.0000000 1.6379072
v -3.2384252 -3.0000000 1.7231022
v -3.6112804 -3.0000000 2.2379920
v -3.1876440 -3.0000000 2.4362480
v 2.2148132 -3.0000000 3.4228700
v 1.8632850 -3.0000000 2.9737502
v 2.5588550 -3.0000000 3.8213828
v 2.1800236 -3.0000000 -1.3526960
v 3.6137704 -3.0000000 2.0279730
v 3.3089034 -3.0000000 2.3422354
v 3.2605972 -3.0000000 1.4999580
v -2.0889744 -3.0000000 -0.6960950
v -1.7825572 -3.0000000 -1.4143600
v -1.5889022 -3.0000000 0.0167000
v -1.2379829 -3.0000000 0.3184090
v -2.2081518 -3.0000000 3.0561106
v -2.8999412 -3.0000000 4.0188224
v -3.6356780 -3.0000000 3.4260944
v -3.2973720 -3.0000000 2.9725322
v -1.8230932 -3.0000000 2.5102150
v 3.6423752 -3.0000000 3.3541144
v 3.1477974 -3.0000000 3.6685372
v 1.3995488 -3.0000000 -1.6694431
v 1.5461809 -3.0000000 2.5692930
v 2.7701912 -3.0000000 0.6067390
v 1.1627500 -3.0000000 3.4856712
v 0.4893880 -3.0000000 3.5524112
v 1.1375891 -3.0000000 2.8040122
v 0.0845721 -3.0000000 2.9709666
v 1.0393421 -3.0000000 2.0351570
v 1.0402830 -3.0000000 -1.9885810
v -0.6287320 -3.0000000 -0.8525810
v 1.3472272 -3.0000000 0.1077779
v -0.2941550 -3.0000000 -0.6034629
v -0.1585250 -3.0000000 1.5361430
v 0.1640000 -3.0000000 -0.2970000
v 1.7628893 -3.0000000 1.0677351
v -0.7015529 -3.0000000 0.4324960
v -0.2794910 -3.0000000 2.5081204
v -0.9903793 -3.0000000 3.6259340
v -1.4753131 -3.0000000 2.2039632
v 0.0845721 -3.0000000 2.9709666
v 0.4893880 -3.0000000 3.5524112
v 1.0393421 -3.0000000 2.0351570
v 1.1375891 -3.0000000 2.8040122
v 1.1627500 -3.0000000 3.4856712
v 2.5924614 -3.0000000 0.0210330
v 2.7701912 -3.0000000 0.6067390
v 3.2605972 -3.0000000 1.4999580
v 1.5461809 -3.0000000 2.5692930
v 1.8632850 -3.0000000 2.9737502
v 3.6137704 -3.0000000 2.0279730
v 3.3089034 -3.0000000 2.3422354
v 3.1477974 -3.0000000 3.6685372
v 2.5588550 -3.0000000 3.8213828
v 3.6423752 -3.0000000 3.3541144
v 2.1800236 -3.0000000 -1.3526960
v 2.9035742 -3.0000000 -1.1540390
v 3.2223032 -3.0000000 -0.1886321
v 1.3995488 -3.0000000 -1.6694431
v 1.0402830 -3.0000000 -1.9885810
v -1.4257931 -3.0000000 1.1739818
v -1.2379829 -3.0000000 0.3184090
v -1.5889022 -3.0000000 0.0167000
v -1.7825572 -3.0000000 -1.4143600
v -1.2326661 -3.0000000 -1.3770050
v -2.0889744 -3.0000000 -0.6960950
v -0.7322450 -3.0000000 -2.2889794
v -0.2927300 -3.0000000 -1.9227950
v -1.7713442 -3.0000000 -2.0152988
v -2.6789580 -3.0000000 1.7504712
v -3.2582472 -3.0000000 1.2119192
v -2.5924292 -3.0000000 0.6840400
v -3.3946144 -3.0000000 0.6031071
v -3.0851782 -3.0000000 0.2876850
v -3.4605380 -3.0000000 0.0749590
v -1.8230932 -3.0000000 2.5102150
v -3.2973720 -3.0000000 2.9725322
v -3.1876440 -3.0000000 2.4362480
v -2.2081518 -3.0000000 3.0561106
v -2.8999412 -3.0000000 4.0188224
v -3.6356780 -3.0000000 3.4260944
v -3.6112804 -3.0000000 2.2379920
v -3.2384252 -3.0000000 1.7231022
v -3.6419272 -3.0000000 1.6379072
# 270 normals
vn 0.000000 1.000000 0.000000
vn 0.000000 1.000000 0.000000
vn 0.000000 1.000000 0.000000
vn 0.000000 1.000000 0.000000
vn 0.000000 1.000000 0.000000
vn 0.000000 1.000000 0.000000
vn 0.000000 1.000000 0.000000
vn 0.000000 1.000000 0.000000
vn 0.000000 1.000000 0.000000
vn 0.000000 1.000000 0.000000
vn 0.000000 1.000000 0.000000
vn 0.000000 1.000000 0.000000
vn 0.000000 1.000000 0.000000
vn 0.000000 1.000000 0.000000
vn 0.000000 1.000000 0.000000
vn 0.000000 1.000000 0.000000
vn 0.000000 1.000000 0.000000
vn 0.000000 1.000000 0.000000
vn 0.000000 1.000000 0.000000
vn 0.000000 1.000000 0.000000
vn 0.000000 1.000000 0.000000
vn 0.000000 1.000000 0.000000
vn 0.000000 1.000000 0.000000
vn 0.000000 1.000000 0.000000
vn 0.000000 1.000000 0.000000
vn 0.000000 1.000000 0.000000
vn 0.000000 1.000000 0.000000
vn 0.000000 1.000000 0.000000
vn 0.000000 1.000000 0.000000
vn 0.000000 1.000000 0.000000
vn 0.000000 1.000000 0.000000
vn 0.000000 1.000000 0.000000
vn 0.000000 1.000000 0.000000
vn 0.000000 1.000000 0.000000
vn 0.000000 1.000000 0.000000
vn 0.000000 1.000000 0.000000
vn 0.000000 1.000000 0.000000
vn 0.000000 1.000000 0.000000
vn 0.000000 1.000000 0.000000
vn 0.000000 1.000000 0.000000
vn 0.000000 1.000000 0.000000
vn 0.000000 1.000000 0.000000
vn 0.000000 1.000000 0.000000
vn 0.000000 1.000000 0.000000
vn 0.000000 1.000000 0.000000
vn 0.000000 1.000000 0.000000
vn 0.000000 1.000000 0.000000
vn 0.000000 1.000000 0.000000
vn 0.000000 1.000000 0.000000
vn 0.000000 1.000000 0.000000
vn 0.000000 1.000000 0.000000
vn 0.000000 1.000000 0.000000
vn 0.000000 1.000000 0.000000
vn 0.000000 1.000000 0.000000
vn 0.000000 -1.000000 0.000000
vn 0.000000 -1.000000 0.000000
vn 0.000000 -1.000000 0.000000
vn 0.000000 1.000000 0.000000
vn 0.000000 1.000000 0.000000
vn 0.000000 1.000000 0.000000
vn 0.843771 0.000000 0.536623
vn 0.843771 0.000000 0.536623
vn 0.843771 0.000000 0.536623
vn 0.843771 0.000000 0.536623
vn -0.946469 0.000000 0.322774
vn -0.946469 0.000000 0.322774
vn -0.946469 0.000000 0.322774
vn -0.946469 0.000000 0.322774
vn 0.493042 0.000000 -0.869926
vn 0.574284 0.000000 -0.818531
vn 0.574284 0.000000 -0.818531
vn 0.493042 0.000000 -0.869926
vn -0.984466 0.000000 0.175151
vn -0.992218 0.000000 0.123787
vn -0.992218 0.000000 0.123787
vn -0.984466 0.000000 0.175151
vn -0.975798 0.000000 0.218550
vn -0.975798 0.000000 0.218550
vn 0.471037 0.000000 -0.882042
vn 0.471037 0.000000 -0.882042
vn -0.680858 0.000000 0.732375
vn -0.680858 0.000000 0.732375
vn -0.680858 0.000000 0.732375
vn -0.680858 0.000000 0.732375
vn 0.387139 0.000000 -0.921931
vn 0.387139 0.000000 -0.921931
vn -0.254685 0.000000 -0.966947
vn -0.254685 0.000000 -0.966947
vn -0.254685 0.000000 -0.966947
vn -0.254685 0.000000 -0.966947
vn -0.764146 0.000000 0.644876
vn -0.764146 0.000000 0.644876
vn -0.764146 0.000000 0.644876
vn -0.764146 0.000000 0.644876
vn 0.949521 0.000000 -0.313465
vn 0.949521 0.000000 -0.313465
vn 0.949521 0.000000 -0.313465
vn 0.949521 0.000000 -0.313465
vn 0.315754 0.000000 0.948788
vn 0.315754 0.000000 0.948788
vn 0.315754 0.000000 0.948788
vn 0.315754 0.000000 0.948788
vn 0.640084 0.000000 -0.768205
vn 0.640084 0.000000 -0.768205
vn 0.640084 0.000000 -0.768205
vn 0.640084 0.000000 -0.768205
vn 0.206525 0.000000 -0.978423
vn 0.116096 0.000000 -0.993225
vn 0.116096 0.000000 -0.993225
vn 0.206525 0.000000 -0.978423
vn -0.998627 0.000000 0.050998
vn -0.998627 0.000000 0.050998
vn -0.998627 0.000000 0.050998
vn -0.998627 0.000000 0.050998
vn -0.423823 0.000000 0.905695
vn -0.423823 0.000000 0.905695
vn -0.423823 0.000000 0.905695
vn -0.423823 0.000000 0.905695
vn 0.048801 0.000000 -0.998718
vn 0.048801 0.000000 -0.998718
vn -0.773027 0.000000 0.634347
vn -0.787157 0.000000 0.616645
vn -0.787157 0.000000 0.616645
vn -0.773027 0.000000 0.634347
vn -0.756943 0.000000 0.653452
vn -0.756943 0.000000 0.653452
vn 0.324178 0.000000 -0.945920
vn 0.264695 0.000000 -0.964292
vn 0.264695 0.000000 -0.964292
vn 0.324178 0.000000 -0.945920
vn 0.717665 0.000000 0.696209
vn 0.717665 0.000000 0.696209
vn 0.717665 0.000000 0.696209
vn 0.717665 0.000000 0.696209
vn 0.859855 0.000000 -0.510346
vn 0.831197 0.000000 -0.555942
vn 0.831197 0.000000 -0.555942
vn 0.859855 0.000000 -0.510346
vn -0.919795 0.000000 -0.392388
vn -0.919795 0.000000 -0.392388
vn -0.919795 0.000000 -0.392388
vn -0.919795 0.000000 -0.392388
vn -0.766068 0.000000 0.642587
vn -0.818562 0.000000 0.574254
vn -0.818562 0.000000 0.574254
vn -0.766068 0.000000 0.642587
vn -0.651926 0.000000 0.758194
vn -0.651926 0.000000 0.758194
vn 0.067753 0.000000 -0.997681
vn 0.067753 0.000000 -0.997681
vn 0.067753 0.000000 -0.997681
vn 0.067753 0.000000 -0.997681
vn 0.813892 0.000000 0.580907
vn 0.812061 0.000000 0.583532
vn 0.812061 0.000000 0.583532
vn 0.813892 0.000000 0.580907
vn -0.627297 0.000000 0.778704
vn -0.627297 0.000000 0.778704
vn -0.627297 0.000000 0.778704
vn -0.627297 0.000000 0.778704
vn -0.801502 0.000000 -0.597815
vn -0.910944 0.000000 -0.412287
vn -0.910944 0.000000 -0.412287
vn -0.801502 0.000000 -0.597815
vn -0.979674 0.000000 -0.200452
vn -0.979674 0.000000 -0.200452
vn 0.758103 0.000000 0.652017
vn 0.758103 0.000000 0.652017
vn 0.660807 0.000000 0.750412
vn 0.660807 0.000000 0.750412
vn 0.949673 0.000000 -0.312916
vn 0.949673 0.000000 -0.312916
vn 0.949673 0.000000 -0.312916
vn 0.949673 0.000000 -0.312916
vn 0.536471 0.000000 0.843832
vn 0.395929 0.000000 0.918177
vn 0.395929 0.000000 0.918177
vn 0.536471 0.000000 0.843832
vn 0.487212 0.000000 -0.873192
vn 0.487212 0.000000 -0.873192
vn 0.251144 0.000000 0.967924
vn 0.251144 0.000000 0.967924
vn -0.751511 0.000000 0.659708
vn -0.751511 0.000000 0.659708
vn 0.911311 0.000000 -0.411677
vn 0.911311 0.000000 -0.411677
vn 0.956907 0.000000 -0.290301
vn 0.956907 0.000000 -0.290301
vn 0.098608 0.000000 0.995056
vn 0.098608 0.000000 0.995056
vn 0.098608 0.000000 0.995056
vn 0.098608 0.000000 0.995056
vn 0.996338 0.000000 -0.084691
vn 0.999298 0.000000 -0.036837
vn 0.999298 0.000000 -0.036837
vn 0.996338 0.000000 -0.084691
vn -0.820607 0.000000 0.571354
vn -0.805194 0.000000 0.592871
vn -0.805194 0.000000 0.592871
vn -0.820607 0.000000 0.571354
vn 0.991912 0.000000 -0.126747
vn 0.991912 0.000000 -0.126747
vn -0.785906 0.000000 0.618232
vn -0.785906 0.000000 0.618232
vn 0.664073 0.000000 -0.747604
vn 0.664073 0.000000 -0.747604
vn -0.049289 0.000000 -0.998718
vn -0.049289 0.000000 -0.998718
vn -0.049289 0.000000 -0.998718
vn -0.049289 0.000000 -0.998718
vn -0.725325 0.000000 0.688244
vn -0.725325 0.000000 0.688244
vn -0.976653 0.000000 -0.214338
vn -0.976653 0.000000 -0.214338
vn -0.976653 0.000000 -0.214338
vn -0.976653 0.000000 -0.214338
vn 0.000000 -1.000000 0.000000
vn 0.000000 -1.000000 0.000000
vn 0.000000 -1.000000 0.000000
vn 0.000000 -1.000000 0.000000
vn 0.000000 -1.000000 0.000000
vn 0.000000 -1.000000 0.000000
vn 0.000000 -1.000000 0.000000
vn 0.000000 -1.000000 0.000000
vn 0.000000 -1.000000 0.000000
vn 0.000000 -1.000000 0.000000
vn 0.000000 -1.000000 0.000000
vn 0.000000 -1.000000 0.000000
vn 0.000000 -1.000000 0.000000
vn 0.000000 -1.000000 0.000000
vn 0.000000 -1.000000 0.000000
vn 0.000000 -1.000000 0.000000
vn 0.000000 -1.000000 0.000000
vn 0.000000 -1.000000 0.000000
vn 0.000000 -1.000000 0.000000
vn 0.000000 -1.000000 0.000000
vn 0.000000 -1.000000 0.000000
vn 0.000000 -1.000000 0.000000
vn 0.000000 -1.000000 0.000000
vn 0.000000 -1.000000 0.000000
vn 0.000000 -1.000000 0.000000
vn 0.000000 -1.000000 0.000000
vn 0.000000 -1.000000 0.000000
vn 0.000000 -1.000000 0.000000
vn 0.000000 -1.000000 0.000000
vn 0.000000 -1.000000 0.000000
vn 0.000000 -1.000000 0.000000
vn 0.000000 -1.000000 0.000000
vn 0.000000 -1.000000 0.000000
vn 0.000000 -1.000000 0.000000
vn 0.000000 -1.000000 0.000000
vn 0.000000 -1.000000 0.000000
vn 0.000000 -1.000000 0.000000
vn 0.000000 -1.000000 0.000000
vn 0.000000 -1.000000 0.000000
vn 0.000000 -1.000000 0.000000
vn 0.000000 -1.000000 0.000000
vn 0.000000 -1.000000 0.000000
vn 0.000000 -1.000000 0.000000
vn 0.000000 -1.000000 0.000000
vn 0.000000 -1.000000 0.000000
vn 0.000000 -1.000000 0.000000
vn 0.000000 -1.000000 0.000000
vn 0.000000 -1.000000 0.000000
vn 0.000000 -1.000000 0.000000
vn 0.000000 -1.000000 0.000000
vn 0.000000 -1.000000 0.000000
vn 0.000000 -1.000000 0.000000
vn 0.000000 -1.000000 0.000000
vn 0.000000 -1.000000 0.000000
# 206 uv coords
vt 0.889548 0.152133
vt 0.856351 0.163520
vt 0.902398 0.143522
vt 0.844708 0.190467
vt 0.911779 0.136523
vt 0.898639 0.203572
vt 0.913857 0.172588
vt 0.704390 0.003932
vt 0.703151 0.087757
vt 0.086582 0.859557
vt 0.142002 0.886566
vt 0.095960 0.866559
vt 0.099706 0.926607
vt 0.108808 0.875172
vt 0.153642 0.913516
vt 0.084492 0.895621
vt 0.902039 0.230849
vt 0.891834 0.243843
vt 0.865031 0.217596
vt 0.850827 0.232598
vt 0.816427 0.177559
vt 0.821402 0.161122
vt 0.832935 0.122563
vt 0.854829 0.113656
vt 0.928911 0.169373
vt 0.934203 0.193397
vt 0.862282 0.239175
vt 0.880486 0.260165
vt 0.841943 0.243953
vt 0.802686 0.202636
vt 0.812633 0.128157
vt 0.864902 0.104695
vt 0.938753 0.160888
vt 0.935587 0.222303
vt 0.921996 0.262212
vt 0.861589 0.258306
vt 0.822453 0.267762
vt 0.805920 0.263491
vt 0.792791 0.217465
vt 0.801355 0.226276
vt 0.803722 0.155261
vt 0.902313 0.106499
vt 0.928709 0.121785
vt 0.944136 0.120719
vt 0.945332 0.230900
vt 0.966954 0.179667
vt 0.985629 0.194495
vt 0.969369 0.209600
vt 0.792031 0.254684
vt 0.914632 0.096210
vt 0.952761 0.140865
vt 0.985072 0.208852
vt 0.995520 0.223313
vt 0.983627 0.228865
vt 0.956116 0.246228
vt 0.986686 0.243927
vt 0.980796 0.168555
vt 0.989470 0.177417
vt 0.943803 0.103850
vt 0.996399 0.206474
vt 0.996159 0.256674
vt 0.975485 0.273275
vt 0.991339 0.162599
vt 0.106506 0.966881
vt 0.096307 0.953883
vt 0.117852 0.983206
vt 0.133314 0.940639
vt 0.136059 0.962217
vt 0.136750 0.981349
vt 0.076355 0.985248
vt 0.062764 0.945339
vt 0.064137 0.916430
vt 0.069438 0.892403
vt 0.176950 0.884174
vt 0.181923 0.900610
vt 0.147516 0.955642
vt 0.028978 0.932664
vt 0.012707 0.917578
vt 0.031364 0.902730
vt 0.053030 0.953943
vt 0.195663 0.925689
vt 0.165428 0.845614
vt 0.185729 0.851213
vt 0.156398 0.966997
vt 0.143535 0.836703
vt 0.008845 0.900506
vt 0.017509 0.891634
vt 0.011687 0.967006
vt 0.014733 0.951940
vt 0.042259 0.969279
vt 0.002838 0.946397
vt 0.013273 0.931928
vt 0.059599 0.883913
vt 0.133466 0.827741
vt 0.194633 0.878318
vt 0.205557 0.940518
vt 0.196992 0.949329
vt 0.192414 0.986544
vt 0.175882 0.990810
vt 0.006959 0.885690
vt 0.022914 0.996343
vt 0.002225 0.979761
vt 0.001944 0.929561
vt 0.054230 0.843742
vt 0.069657 0.844814
vt 0.096056 0.829534
vt 0.206306 0.977741
vt 0.045598 0.863885
vt 0.083738 0.819242
vt 0.054568 0.826875
vt 0.963119 0.008843
vt 0.996385 0.009579
vt 0.994525 0.093749
vt 0.961269 0.093013
vt 0.944366 0.008432
vt 0.942536 0.092603
vt 0.931356 0.008147
vt 0.929542 0.092318
vt 0.889190 0.007238
vt 0.887402 0.091410
vt 0.852002 0.006450
vt 0.850254 0.090623
vt 0.835455 0.006106
vt 0.833756 0.090279
vt 0.815549 0.005704
vt 0.813905 0.089878
vt 0.796532 0.005332
vt 0.794951 0.089508
vt 0.777358 0.004972
vt 0.775846 0.089148
vt 0.755570 0.004582
vt 0.754137 0.088760
vt 0.734866 0.004231
vt 0.733519 0.088411
vt 0.720398 0.003999
vt 0.719145 0.088182
vt 0.689625 0.003351
vt 0.688383 0.087886
vt 0.672500 0.003279
vt 0.671362 0.087462
vt 0.656002 0.003060
vt 0.654970 0.087244
vt 0.626048 0.002706
vt 0.625130 0.086891
vt 0.613701 0.002574
vt 0.612905 0.086760
vt 0.595812 0.002413
vt 0.595142 0.086600
vt 0.567151 0.002202
vt 0.566612 0.086390
vt 0.549907 0.002102
vt 0.549504 0.086291
vt 0.531208 0.002025
vt 0.530944 0.086215
vt 0.502607 0.001957
vt 0.502484 0.086148
vt 0.481479 0.001944
vt 0.481498 0.086134
vt 0.457769 0.001970
vt 0.457931 0.086160
vt 0.444212 0.002009
vt 0.444516 0.086199
vt 0.406687 0.002179
vt 0.407130 0.086368
vt 0.390565 0.002280
vt 0.391142 0.086469
vt 0.360344 0.002516
vt 0.361051 0.086703
vt 0.336844 0.002736
vt 0.337672 0.086922
vt 0.321318 0.002906
vt 0.322263 0.087091
vt 0.299348 0.003174
vt 0.300404 0.087358
vt 0.274863 0.003503
vt 0.276020 0.087686
vt 0.261828 0.003697
vt 0.263080 0.087878
vt 0.237203 0.004084
vt 0.238544 0.088264
vt 0.201659 0.004676
vt 0.203076 0.088854
vt 0.183881 0.004989
vt 0.185364 0.089166
vt 0.171743 0.005214
vt 0.173287 0.089390
vt 0.156779 0.005500
vt 0.158380 0.089676
vt 0.139247 0.005846
vt 0.140899 0.090020
vt 0.117032 0.006293
vt 0.118727 0.090467
vt 0.101295 0.006620
vt 0.103030 0.090792
vt 0.089707 0.006866
vt 0.091474 0.091038
vt 0.072835 0.007227
vt 0.074626 0.091398
vt 0.059703 0.007512
vt 0.061509 0.091682
vt 0.044337 0.007845
vt 0.046158 0.092015
vt 0.028455 0.008192
vt 0.030288 0.092362
vt 0.001944 0.008771
vt 0.003784 0.092941
# 120 polygons
usemtl svgBlinn1SG
s 1
g GroundCrack GroundCrackTop
f 10/17/1 9/34/2 8/35/3
f 54/63/4 53/58/5 52/57/6
f 51/47/7 50/46/8 52/57/6 53/58/5
f 42/48/9 11/26/10 50/46/8 51/47/7
f 21/59/11 18/43/12 16/50/13
f 23/31/14 24/22/15 39/41/16
f 18/43/12 5/5/17 15/42/18 16/50/13
f 45/60/19 44/53/20 41/52/21
f 43/54/22 42/48/9 41/52/21 44/53/20
f 22/23/23 2/2/24 24/22/15 23/31/14
f 38/39/25 37/30/26 36/40/27
f 20/51/28 19/33/29 17/44/30
f 12/25/31 3/3/32 5/5/17 19/33/29
f 19/33/29 5/5/17 18/43/12 17/44/30
f 46/55/33 47/56/34 48/61/35 49/62/36
f 46/55/33 40/45/37 43/54/22 47/56/34
f 40/45/37 9/34/2 42/48/9 43/54/22
f 42/48/9 9/34/2 11/26/10
f 6/6/38 11/26/10 9/34/2 10/17/1
f 36/40/27 34/38/39 35/49/40
f 14/24/41 1/1/42 2/2/24 22/23/23
f 36/40/27 32/29/43 33/37/44 34/38/39
f 37/30/26 31/20/45 32/29/43 36/40/27
f 4/4/46 37/30/26 25/21/47
f 24/22/15 2/2/24 4/4/46 25/21/47
f 30/36/48 28/27/49 29/28/50
f 28/27/49 27/19/51 26/18/52 29/28/50
f 27/19/51 6/6/38 10/17/1 26/18/52
f 14/24/41 13/32/53 3/3/32 1/1/42
f 15/42/18 5/5/17 3/3/32 13/32/53
f 2/2/24 1/1/42 7/7/54 6/6/38
f 1/1/42 3/3/32 12/25/31 7/7/54
f 2/2/24 6/6/38 27/19/51 4/4/46
f 31/20/45 37/30/26 4/4/46 27/19/51
f 7/7/54 12/25/31 11/26/10 6/6/38
s off
g GroundCrack GroundCrackWall
f 124/9/55 125/136/56 126/138/57
f 69/8/58 68/137/59 70/135/60
f 77/121/61 78/119/62 104/120/63 103/122/64
f 78/119/65 79/117/66 105/118/67 104/120/68
s 1
f 92/185/69 93/183/70 107/184/71 106/186/72
s 2
f 91/187/73 92/185/74 106/186/75 108/188/76
f 90/189/77 91/187/73 108/188/76 109/190/78
s 1
f 93/183/70 94/181/79 110/182/80 107/184/71
s off
f 89/191/81 90/189/82 109/190/83 111/192/84
s 1
f 94/181/79 95/179/85 112/180/86 110/182/80
s off
f 101/167/87 102/165/88 114/166/89 113/168/90
f 100/169/91 101/167/92 113/168/93 115/170/94
f 59/155/95 60/153/96 117/154/97 116/156/98
f 60/153/99 61/151/100 118/152/101 117/154/102
f 102/165/103 55/163/104 119/164/105 114/166/106
s 3
f 87/195/107 88/193/108 121/194/109 120/196/110
s off
f 86/197/111 87/195/112 120/196/113 122/198/114
f 85/199/115 86/197/116 122/198/117 123/200/118
s 3
f 88/193/108 89/191/119 111/192/120 121/194/109
s 4
f 69/8/121 70/135/122 125/136/123 124/9/124
f 68/137/125 69/8/121 124/9/124 126/138/126
s 5
f 58/157/127 59/155/128 116/156/129 127/158/130
s off
f 64/145/131 65/143/132 129/144/133 128/146/134
s 6
f 63/147/135 64/145/136 128/146/137 130/148/138
s off
f 98/173/139 99/171/140 132/172/141 131/174/142
s 7
f 97/175/143 98/173/144 131/174/145 133/176/146
f 96/177/147 97/175/143 133/176/146 134/178/148
s off
f 99/171/149 100/169/150 115/170/151 132/172/152
s 8
f 81/111/153 82/112/154 136/113/155 135/114/156
s off
f 82/205/157 83/203/158 137/204/159 136/206/160
s 9
f 83/203/161 84/201/162 138/202/163 137/204/164
f 84/201/162 85/199/165 123/200/166 138/202/163
s 8
f 80/115/167 81/111/153 135/114/156 139/116/168
f 79/117/169 80/115/167 139/116/168 105/118/170
s off
f 65/143/171 66/141/172 140/142/173 129/144/174
s 10
f 66/141/175 67/139/176 141/140/177 140/142/178
s 5
f 57/159/179 58/157/127 127/158/130 142/160/180
s 10
f 67/139/176 68/137/181 126/138/182 141/140/177
s 4
f 70/135/122 71/133/183 143/134/184 125/136/123
s 6
f 62/149/185 63/147/135 130/148/138 144/150/186
f 61/151/187 62/149/185 144/150/186 118/152/188
s off
f 74/127/189 75/125/190 146/126/191 145/128/192
s 11
f 73/129/193 74/127/194 145/128/195 147/130/196
s 12
f 75/125/197 76/123/198 148/124/199 146/126/200
s 11
f 72/131/201 73/129/193 147/130/196 149/132/202
s 12
f 76/123/198 77/121/203 103/122/204 148/124/199
s 5
f 56/161/205 57/159/179 142/160/180 150/162/206
s off
f 55/163/207 56/161/208 150/162/209 119/164/210
s 4
f 71/133/183 72/131/211 149/132/212 143/134/184
s off
f 95/179/213 96/177/214 134/178/215 112/180/216
s 1
g GroundCrack GroundCrackFloor
f 158/65/217 159/70/218 160/71/219
f 195/100/220 194/87/221 193/86/222
f 191/78/223 193/86/222 194/87/221 192/79/224
f 190/77/225 191/78/223 192/79/224 181/72/226
f 189/110/227 187/109/228 185/105/229
f 177/83/230 178/95/231 166/74/232
f 185/105/229 187/109/228 188/106/233 151/10/234
f 204/103/235 203/92/236 202/91/237
f 198/89/238 202/91/237 203/92/236 190/77/225
f 176/82/239 177/83/230 166/74/232 152/11/240
f 171/96/241 172/97/242 168/81/243
f 186/108/244 184/104/245 183/93/246
f 182/73/247 183/93/246 151/10/234 153/12/248
f 183/93/246 184/104/245 185/105/229 151/10/234
f 199/90/249 200/101/250 201/102/251 197/88/252
f 199/90/249 197/88/252 198/89/238 196/80/253
f 196/80/253 198/89/238 190/77/225 160/71/219
f 190/77/225 181/72/226 160/71/219
f 154/13/254 158/65/217 160/71/219 181/72/226
f 172/97/242 175/107/255 173/98/256
f 179/85/257 176/82/239 152/11/240 155/14/258
f 172/97/242 173/98/256 174/99/259 170/84/260
f 168/81/243 172/97/242 170/84/260 169/76/261
f 156/15/262 167/75/263 168/81/243
f 166/74/232 167/75/263 156/15/262 152/11/240
f 165/69/264 162/66/265 164/68/266
f 164/68/266 162/66/265 161/64/267 163/67/268
f 163/67/268 161/64/267 158/65/217 154/13/254
f 179/85/257 155/14/258 153/12/248 180/94/269
f 188/106/233 180/94/269 153/12/248 151/10/234
f 152/11/240 154/13/254 157/16/270 155/14/258
f 155/14/258 157/16/270 182/73/247 153/12/248
f 152/11/240 156/15/262 163/67/268 154/13/254
f 169/76/261 163/67/268 156/15/262 168/81/243
f 157/16/270 154/13/254 181/72/226 182/73/247
# totals: 204 206 270 120
