# This file uses centimeters as units for non-parametric coordinates.

mtllib Label_V01.mtl
g default
v 0.606474 0.467273 -0.672403
v 0.671066 1.462023 -0.745329
v 1.266600 0.468571 0.906196
v 1.358559 1.466087 0.941229
v 0.886539 0.531826 1.205613
v 0.956053 1.466087 1.275401
v 0.502014 0.550264 1.313796
v 0.551259 1.466087 1.396281
v 0.107209 0.468571 1.319968
v 0.117191 1.466087 1.414522
v -0.362950 0.468572 1.174500
v -0.394140 1.466087 1.269104
v -0.678788 0.468572 0.888402
v -0.743771 1.466087 0.962555
v -0.930783 0.468571 0.578587
v -1.016817 1.466087 0.620774
v -1.025913 0.468571 0.188555
v -1.116748 1.466087 0.196260
v -0.976876 0.468572 -0.219934
v -1.073064 1.466087 -0.246005
v -0.803466 0.468571 -0.576092
v -0.883160 1.466087 -0.634573
v -0.495225 0.468572 -0.824022
v -0.541946 1.466087 -0.908761
v -0.097129 0.468572 -0.929675
v -0.103384 1.466087 -1.026812
v 0.292252 0.468571 -0.886335
v 0.321911 1.466087 -0.980960
v 0.554558 3.205304 -0.613787
v 0.663271 2.481105 -0.736527
v 0.318332 2.487896 -0.969540
v 0.268425 3.214116 -0.810315
v 1.192622 3.214393 0.878013
v 1.347460 2.488059 0.937001
v 0.830635 3.060702 1.149489
v 0.947664 2.488038 1.266979
v 0.462432 3.214212 1.243797
v 0.545315 2.488001 1.386337
v 0.099191 3.214063 1.243980
v 0.115987 2.487953 1.403052
v -0.337918 3.092872 1.098572
v -0.390376 2.487905 1.257688
v -0.627193 3.213770 0.828927
v -0.735890 2.487860 0.953607
v -0.874784 3.141765 0.572087
v -1.006354 2.487831 0.615710
v -0.948576 3.213644 0.182264
v -1.105800 2.487820 0.195209
v -0.900292 3.213656 -0.198324
v -1.061409 2.487808 -0.243064
v -0.740038 3.213711 -0.529201
v -0.873513 2.487794 -0.627517
v -0.457599 3.213819 -0.755989
v -0.536317 2.487808 -0.898539
v -0.093204 3.213962 -0.852073
v -0.102538 2.487843 -1.015059
v 1.486938 0.558660 0.571539
v 1.610162 1.466087 0.444679
v 1.432740 3.112078 0.455232
v 1.598295 2.488033 0.445386
v 1.254866 0.456327 0.894642
v 0.879768 0.520593 1.190131
v 1.347006 1.463188 0.930006
v 0.949480 1.463357 1.260174
v 0.499974 0.539217 1.296169
v 0.549568 1.463341 1.379241
v 0.109407 0.456597 1.302438
v 0.119436 1.463320 1.397491
v -0.355106 0.456630 1.159279
v -0.386376 1.463343 1.254071
v -0.666772 0.456696 0.875639
v -0.732235 1.463353 0.950356
v -0.917227 0.456688 0.571617
v -1.003013 1.463379 0.613922
v -1.009856 0.456663 0.188610
v -1.101263 1.463342 0.196355
v -0.961301 0.456725 -0.216160
v -1.058175 1.463370 -0.242452
v -0.791012 0.456749 -0.567000
v -0.870846 1.463395 -0.625635
v -0.488921 0.456727 -0.809502
v -0.535776 1.463384 -0.894491
v -0.098643 0.456714 -0.912619
v -0.104664 1.463378 -1.009957
v 0.283558 0.456700 -0.869795
v 0.313298 1.463372 -0.964702
v 0.309738 2.491346 -0.953330
v 0.259483 3.222296 -0.793568
v 1.180826 3.222410 0.866700
v 1.335901 2.491425 0.925906
v 0.823560 3.066915 1.133754
v 0.941088 2.491372 1.251834
v 0.459820 3.222427 1.226149
v 0.543403 2.491493 1.369395
v 0.102037 3.222321 1.226378
v 0.118567 2.491472 1.386118
v -0.329857 3.099343 1.083056
v -0.382616 2.491170 1.242739
v -0.615588 3.221789 0.815502
v -0.724642 2.491260 0.941201
v -0.861342 3.149313 0.565135
v -0.992624 2.491322 0.608848
v -0.932241 3.221852 0.182419
v -1.090369 2.491316 0.195365
v -0.884444 3.221743 -0.194460
v -1.046565 2.491238 -0.239518
v -0.727431 3.221785 -0.519981
v -0.861247 2.491187 -0.618622
v -0.451141 3.221941 -0.741233
v -0.530192 2.491227 -0.884323
v -0.094861 3.222113 -0.834807
v -0.103853 2.491277 -0.998267
v 1.473795 0.547096 0.560806
v 1.598036 1.463028 0.433077
v 1.419056 3.119063 0.444595
v 1.586063 2.491493 0.434469
vt 0.871593 0.756356
vt 0.794430 0.652671
vt 0.795643 0.694714
vt 0.711612 0.690800
vt 0.837321 0.757043
vt 0.793228 0.618899
vt 0.802964 0.750971
vt 0.792240 0.584225
vt 0.760783 0.751223
vt 0.791212 0.541965
vt 0.724057 0.750508
vt 0.790427 0.504997
vt 0.689671 0.751366
vt 0.790323 0.470309
vt 0.655131 0.751658
vt 0.789971 0.435937
vt 0.619419 0.752295
vt 0.789944 0.400548
vt 0.585347 0.753469
vt 0.790194 0.366239
vt 0.551866 0.754017
vt 0.790596 0.331583
vt 0.517505 0.754057
vt 0.791130 0.295419
vt 0.485023 0.753234
vt 0.791776 0.261235
vt 0.881361 0.690184
vt 0.878754 0.648771
vt 0.927893 0.640975
vt 0.907398 0.982285
vt 0.877900 0.615590
vt 0.939267 0.606927
vt 0.876986 0.581396
vt 0.937960 0.575586
vt 0.875510 0.539671
vt 0.927762 0.535358
vt 0.875472 0.503355
vt 0.937154 0.499938
vt 0.874426 0.469378
vt 0.930356 0.468913
vt 0.874136 0.435604
vt 0.935833 0.433718
vt 0.873775 0.400828
vt 0.935260 0.399812
vt 0.873687 0.367288
vt 0.934841 0.367578
vt 0.874279 0.333471
vt 0.935258 0.336183
vt 0.875651 0.298096
vt 0.936438 0.303955
vt 0.877461 0.264529
vt 0.495981 0.987190
vt 0.796796 0.740201
vt 0.719126 0.724429
vt 0.960524 0.922736
vt 0.938620 0.720649
vt 0.871486 0.758003
vt 0.912572 0.753646
vt 0.916395 0.836284
vt 0.874096 0.835898
vt 0.837227 0.758763
vt 0.840165 0.835405
vt 0.802993 0.752708
vt 0.805528 0.835237
vt 0.760816 0.752916
vt 0.762986 0.835064
vt 0.724154 0.752242
vt 0.725809 0.834786
vt 0.689737 0.752925
vt 0.690772 0.835183
vt 0.655056 0.753282
vt 0.655842 0.835281
vt 0.619515 0.753921
vt 0.620158 0.835695
vt 0.585419 0.755032
vt 0.585315 0.836379
vt 0.551750 0.755618
vt 0.549853 0.837152
vt 0.517183 0.755731
vt 0.512862 0.837922
vt 0.484562 0.754984
vt 0.477971 0.838352
vt 0.707285 0.233297
vt 0.791738 0.226996
vt 0.466993 0.992893
vt 0.879877 0.230586
vt 0.482409 0.924838
vt 0.495335 0.985626
vt 0.913835 0.920395
vt 0.907298 0.980809
vt 0.866952 0.970239
vt 0.872359 0.919959
vt 0.832223 0.980642
vt 0.839057 0.919934
vt 0.800503 0.980005
vt 0.804347 0.919629
vt 0.758958 0.971607
vt 0.762262 0.919029
vt 0.722920 0.980282
vt 0.725717 0.919246
vt 0.691467 0.973655
vt 0.691180 0.918373
vt 0.655986 0.979130
vt 0.656762 0.918305
vt 0.622114 0.979104
vt 0.621619 0.918310
vt 0.589663 0.978855
vt 0.587544 0.918608
vt 0.558100 0.979798
vt 0.552933 0.919723
vt 0.525896 0.981934
vt 0.516730 0.921860
vt 0.945831 0.761830
vt 0.962139 0.836529
vt 0.959264 0.922163
vt 0.948219 0.974212
vt 0.942264 0.678617
vt 0.526372 0.983433
vt 0.939200 0.273233
vt 0.558311 0.981238
vt 0.589649 0.980270
vt 0.622048 0.980583
vt 0.656100 0.980612
vt 0.691406 0.975015
vt 0.722784 0.981886
vt 0.758888 0.973144
vt 0.800416 0.981603
vt 0.832246 0.982245
vt 0.867025 0.971772
vt 0.912718 0.751981
vt 0.707769 0.264991
vt 0.708222 0.297679
vt 0.707921 0.332302
vt 0.707521 0.365879
vt 0.707035 0.399871
vt 0.706805 0.435468
vt 0.706839 0.469874
vt 0.707408 0.504133
vt 0.708027 0.540719
vt 0.708637 0.582771
vt 0.716355 0.616528
vt 0.715819 0.650429
vt 0.885066 0.735343
vt 0.963497 0.836149
vt 0.949088 0.975550
vt 0.946801 0.760349
vt 0.443349 0.837337
vt 0.448553 0.929320
vt 0.942284 0.244123
vt 0.454271 0.750413
vn -0.484533 0.096460 -0.869438
vn -0.486717 0.040074 -0.872640
vn -0.774736 0.033692 -0.631386
vn -0.749259 0.086680 -0.656580
vn -0.146917 0.095024 -0.984574
vn -0.160633 0.039303 -0.986231
vn 0.157041 0.094189 -0.983091
vn 0.137661 0.039513 -0.989691
vn 0.473171 0.095958 -0.875729
vn 0.467678 0.040648 -0.882964
vn 0.718432 0.094743 -0.689114
vn 0.720105 0.040267 -0.692696
vn 0.892416 0.095133 -0.441072
vn 0.896561 0.040236 -0.441090
vn 0.993811 0.093652 -0.059740
vn 0.997273 0.039765 -0.062169
vn 0.957203 0.096629 0.272811
vn 0.961480 0.041030 0.271795
vn 0.777234 0.098110 0.621516
vn 0.780419 0.041437 0.623882
vn 0.445053 0.096274 0.890314
vn 0.447745 0.040600 0.893239
vn 0.079974 0.096406 0.992124
vn 0.081062 0.040765 0.995875
vn -0.319505 0.098072 0.942496
vn -0.322094 0.041326 0.945805
vn -0.778672 -0.093856 -0.620372
vn -0.483046 -0.093996 -0.870535
vn -0.450146 -0.231564 -0.862407
vn -0.747146 -0.230327 -0.623476
vn -0.162933 -0.091446 -0.982390
vn -0.127497 -0.216572 -0.967906
vn 0.143125 -0.091995 -0.985420
vn 0.151962 -0.219797 -0.963637
vn 0.466910 -0.096043 -0.879074
vn 0.472438 -0.235019 -0.849452
vn 0.711537 -0.091508 -0.696665
vn 0.690576 -0.220732 -0.688754
vn 0.894554 -0.088813 -0.438047
vn 0.873454 -0.212732 -0.437976
vn 0.994001 -0.091769 -0.059495
vn 0.975846 -0.214661 -0.040550
vn 0.957895 -0.094840 0.271003
vn 0.937663 -0.220370 0.268746
vn 0.777832 -0.094932 0.621262
vn 0.761712 -0.222511 0.608509
vn 0.446146 -0.093021 0.890113
vn 0.435184 -0.218577 0.873407
vn 0.079991 -0.093661 0.992386
vn 0.076500 -0.218876 0.972749
vn -0.321690 -0.095803 0.941986
vn -0.315317 -0.222618 0.922506
vn -0.884301 0.024870 -0.466255
vn -0.871421 0.074777 -0.484803
vn -0.888581 -0.088197 -0.450161
vn -0.870065 -0.222169 -0.440031
vn 0.484790 -0.096922 0.869244
vn 0.747956 -0.087069 0.658013
vn 0.773565 -0.033718 0.632819
vn 0.487138 -0.040157 0.872401
vn 0.147494 -0.095368 0.984454
vn 0.161097 -0.039321 0.986155
vn -0.157725 -0.094604 0.982941
vn -0.138452 -0.039571 0.989578
vn -0.472888 -0.096411 0.875832
vn -0.467519 -0.040752 0.883043
vn -0.719576 -0.095267 0.687848
vn -0.721186 -0.040377 0.691564
vn -0.893431 -0.095696 0.438888
vn -0.897560 -0.040378 0.439040
vn -0.993703 -0.094101 0.060826
vn -0.997220 -0.039855 0.062961
vn -0.956900 -0.096966 -0.273751
vn -0.961242 -0.041067 -0.272631
vn -0.776936 -0.098632 -0.621806
vn -0.780247 -0.041563 -0.624089
vn -0.446037 -0.096921 -0.889751
vn -0.448742 -0.040787 -0.892730
vn -0.080916 -0.097056 -0.991984
vn -0.081999 -0.040951 -0.995791
vn 0.341270 -0.098929 -0.934745
vn 0.341164 -0.041469 -0.939088
vn 0.557895 -0.095723 -0.824373
vn 0.559609 -0.040687 -0.827757
vn 0.552946 0.216868 -0.804499
vn 0.559910 0.091831 -0.823449
vn 0.340654 0.096006 -0.935274
vn 0.336527 0.223939 -0.914659
vn 0.777517 0.094142 0.621775
vn 0.745687 0.230618 0.625113
vn 0.450928 0.231981 0.861887
vn 0.483543 0.094305 0.870226
vn 0.127992 0.216935 0.967759
vn 0.163166 0.091714 0.982327
vn -0.152549 0.220180 0.963457
vn -0.143630 0.092261 0.985322
vn -0.472088 0.235284 0.849573
vn -0.466755 0.096267 0.879132
vn -0.692333 0.221283 0.686810
vn -0.712814 0.091819 0.695317
vn -0.874352 0.213405 0.435852
vn -0.895473 0.089251 0.436076
vn -0.975683 0.215100 0.042134
vn -0.993924 0.092058 0.060329
vn -0.937313 0.220624 -0.269758
vn -0.957633 0.095053 -0.271853
vn -0.761339 0.222987 -0.608801
vn -0.777640 0.095275 -0.621449
vn -0.436147 0.219251 -0.872757
vn -0.447123 0.093460 -0.889577
vn -0.077451 0.219570 -0.972518
vn -0.080933 0.094090 -0.992269
vn 0.870628 -0.074909 0.486206
vn 0.883707 -0.024748 0.467385
vn 0.887918 0.088479 0.451413
vn 0.869148 0.222293 0.441779
vn 0.192478 -0.827001 0.528225
vn 0.202648 -0.825250 0.527159
vn 0.432924 -0.821962 0.370075
vn 0.432964 -0.821959 0.370034
vn 0.145231 -0.830699 0.537445
vn 0.145987 -0.830535 0.537494
vn -0.002915 -0.833956 0.551823
vn -0.019269 -0.833606 0.552023
vn -0.268468 -0.826134 0.495407
vn -0.273305 -0.826169 0.492696
vn -0.419316 -0.813887 0.402196
vn -0.421477 -0.813476 0.400766
vn -0.531820 -0.804077 0.265759
vn -0.532741 -0.803963 0.264253
vn -0.599480 -0.799816 0.030291
vn -0.599669 -0.799378 0.037316
vn -0.574764 -0.801744 -0.163868
vn -0.573635 -0.801547 -0.168716
vn -0.474122 -0.797271 -0.373587
vn -0.470623 -0.797135 -0.378271
vn -0.263878 -0.800934 -0.537470
vn -0.270891 -0.800525 -0.534582
vn -0.034903 -0.818640 -0.573246
vn -0.053403 -0.816709 -0.574573
vn 0.153582 -0.838029 -0.523566
vn 0.136595 -0.836043 -0.531389
vn 0.300656 -0.842646 -0.446715
vn 0.124392 0.915456 -0.382709
vn 0.108187 0.914040 -0.390930
vn 0.245559 0.916283 -0.316427
vn 0.237575 0.929788 0.281163
vn 0.259194 0.929495 0.262408
vn -0.020753 0.878768 0.476798
vn -0.020753 0.878768 0.476798
vn 0.430041 0.867473 0.250112
vn 0.430041 0.867473 0.250112
vn 0.215013 0.912257 0.348649
vn 0.243779 0.909419 0.336940
vn -0.190918 0.915614 0.353839
vn -0.203484 0.914904 0.348633
vn -0.345636 0.894387 0.283915
vn -0.345636 0.894387 0.283915
vn -0.024532 0.900497 0.434170
vn -0.024532 0.900497 0.434170
vn -0.224377 0.923670 0.310628
vn -0.204568 0.923668 0.324022
vn -0.424564 0.891317 0.159059
vn -0.424564 0.891317 0.159059
vn -0.410276 0.879472 0.241253
vn -0.410276 0.879472 0.241253
vn -0.432956 0.896773 0.091364
vn -0.432787 0.896706 0.092811
vn -0.430527 0.893529 -0.127488
vn -0.431435 0.893657 -0.123456
vn -0.354480 0.890981 -0.283719
vn -0.357325 0.891081 -0.279811
vn -0.203718 0.892394 -0.402656
vn -0.198205 0.892633 -0.404873
vn -0.039195 0.901907 -0.430149
vn -0.023359 0.903208 -0.428567
vn 0.592994 -0.785478 0.177151
vn 0.592994 -0.785478 0.177151
vn 0.709811 -0.191002 -0.678002
vn 0.709811 -0.191002 -0.678002
vn 0.699280 -0.098773 -0.707991
vn 0.695742 -0.076371 -0.714220
vn 0.679219 0.060121 -0.731469
vn 0.678485 0.092829 -0.728726
vn 0.671925 0.189958 -0.715844
vn 0.671926 0.189957 -0.715844
vn 0.472231 0.879869 0.053180
vn 0.472231 0.879869 0.053180
vn -0.520719 0.095683 0.848349
vn -0.522571 0.040435 0.851637
vn -0.522813 -0.091099 0.847566
vn -0.515819 -0.217234 0.828698
s 1
g Label Bottle
usemtl initialShadingGroup
f 62/142/1 64/2/2 63/3/3 61/4/4
f 65/141/5 66/6/6 64/2/2 62/142/1
f 67/140/7 68/8/8 66/6/6 65/141/5
f 69/139/9 70/10/10 68/8/8 67/140/7
f 71/138/11 72/12/12 70/10/10 69/139/9
f 73/137/13 74/14/14 72/12/12 71/138/11
f 75/136/15 76/16/16 74/14/14 73/137/13
f 77/135/17 78/18/18 76/16/16 75/136/15
f 79/134/19 80/20/20 78/18/18 77/135/17
f 81/133/21 82/22/22 80/20/20 79/134/19
f 83/132/23 84/24/24 82/22/22 81/133/21
f 85/131/25 86/26/26 84/24/24 83/132/23
f 90/27/27 92/28/28 91/29/29 89/117/30
f 92/28/28 94/31/31 93/32/32 91/29/29
f 94/31/31 96/33/33 95/34/34 93/32/32
f 96/33/33 98/35/35 97/36/36 95/34/34
f 98/35/35 100/37/37 99/38/38 97/36/36
f 100/37/37 102/39/39 101/40/40 99/38/38
f 102/39/39 104/41/41 103/42/42 101/40/40
f 104/41/41 106/43/43 105/44/44 103/42/42
f 106/43/43 108/45/45 107/46/46 105/44/44
f 108/45/45 110/47/47 109/48/48 107/46/46
f 110/47/47 112/49/49 111/50/50 109/48/48
f 112/49/49 87/51/51 88/119/52 111/50/50
f 64/2/2 92/28/28 90/27/27 63/3/3
f 66/6/6 94/31/31 92/28/28 64/2/2
f 68/8/8 96/33/33 94/31/31 66/6/6
f 70/10/10 98/35/35 96/33/33 68/8/8
f 72/12/12 100/37/37 98/35/35 70/10/10
f 74/14/14 102/39/39 100/37/37 72/12/12
f 76/16/16 104/41/41 102/39/39 74/14/14
f 78/18/18 106/43/43 104/41/41 76/16/16
f 80/20/20 108/45/45 106/43/43 78/18/18
f 82/22/22 110/47/47 108/45/45 80/20/20
f 84/24/24 112/49/49 110/47/47 82/22/22
f 86/26/26 87/51/51 112/49/49 84/24/24
f 61/4/4 63/3/3 114/53/53 113/54/54
f 116/143/55 90/27/27 89/117/30 115/56/56
f 63/3/3 90/27/27 116/143/55 114/53/53
s 2
f 5/57/57 3/58/58 4/59/59 6/60/60
f 7/61/61 5/57/57 6/60/60 8/62/62
f 9/63/63 7/61/61 8/62/62 10/64/64
f 11/65/65 9/63/63 10/64/64 12/66/66
f 13/67/67 11/65/65 12/66/66 14/68/68
f 15/69/69 13/67/67 14/68/68 16/70/70
f 17/71/71 15/69/69 16/70/70 18/72/72
f 19/73/73 17/71/71 18/72/72 20/74/74
f 21/75/75 19/73/73 20/74/74 22/76/76
f 23/77/77 21/75/75 22/76/76 24/78/78
f 25/79/79 23/77/77 24/78/78 26/80/80
f 27/81/81 25/79/79 26/80/80 28/82/82
f 1/150/83 27/81/81 28/82/82 2/147/84
f 29/85/85 30/148/86 31/87/87 32/88/88
f 34/89/89 33/90/90 35/91/91 36/92/92
f 36/92/92 35/91/91 37/93/93 38/94/94
f 38/94/94 37/93/93 39/95/95 40/96/96
f 40/96/96 39/95/95 41/97/97 42/98/98
f 42/98/98 41/97/97 43/99/99 44/100/100
f 44/100/100 43/99/99 45/101/101 46/102/102
f 46/102/102 45/101/101 47/103/103 48/104/104
f 48/104/104 47/103/103 49/105/105 50/106/106
f 50/106/106 49/105/105 51/107/107 52/108/108
f 52/108/108 51/107/107 53/109/109 54/110/110
f 54/110/110 53/109/109 55/111/111 56/112/112
f 56/112/112 55/111/111 32/88/88 31/87/87
f 6/60/60 4/59/59 34/89/89 36/92/92
f 8/62/62 6/60/60 36/92/92 38/94/94
f 10/64/64 8/62/62 38/94/94 40/96/96
f 12/66/66 10/64/64 40/96/96 42/98/98
f 14/68/68 12/66/66 42/98/98 44/100/100
f 16/70/70 14/68/68 44/100/100 46/102/102
f 18/72/72 16/70/70 46/102/102 48/104/104
f 20/74/74 18/72/72 48/104/104 50/106/106
f 22/76/76 20/74/74 50/106/106 52/108/108
f 24/78/78 22/76/76 52/108/108 54/110/110
f 26/80/80 24/78/78 54/110/110 56/112/112
f 28/82/82 26/80/80 56/112/112 31/87/87
f 2/147/84 28/82/82 31/87/87 30/148/86
f 3/58/58 57/113/113 58/114/114 4/59/59
f 60/115/115 59/116/116 33/90/90 34/89/89
f 4/59/59 58/114/114 60/115/115 34/89/89
s 4
f 5/57/117 62/1/118 61/130/119 3/58/120
f 7/61/121 65/5/122 62/1/118 5/57/117
f 9/63/123 67/7/124 65/5/122 7/61/121
f 11/65/125 69/9/126 67/7/124 9/63/123
f 13/67/127 71/11/128 69/9/126 11/65/125
f 15/69/129 73/13/130 71/11/128 13/67/127
f 17/71/131 75/15/132 73/13/130 15/69/129
f 19/73/133 77/17/134 75/15/132 17/71/131
f 21/75/135 79/19/136 77/17/134 19/73/133
f 23/77/137 81/21/138 79/19/136 21/75/135
f 25/79/139 83/23/140 81/21/138 23/77/137
f 27/81/141 85/25/142 83/23/140 25/79/139
f 1/150/143 85/25/142 27/81/141
s 5
f 32/88/144 88/52/145 29/85/146
s 6
f 33/90/147 89/30/148 91/129/149 35/91/150
s 7
f 35/91/151 91/129/152 93/128/153 37/93/154
f 37/93/154 93/128/153 95/127/155 39/95/156
f 39/95/156 95/127/155 97/126/157 41/97/158
s 8
f 41/97/159 97/126/160 99/125/161 43/99/162
f 43/99/162 99/125/161 101/124/163 45/101/164
s 5
f 45/101/165 101/124/166 103/123/167 47/103/168
f 47/103/168 103/123/167 105/122/169 49/105/170
f 49/105/170 105/122/169 107/121/171 51/107/172
f 51/107/172 107/121/171 109/120/173 53/109/174
f 53/109/174 109/120/173 111/118/175 55/111/176
f 55/111/176 111/118/175 88/52/145 32/88/144
s 4
f 3/58/120 61/130/119 113/146/177 57/113/178
s 10
f 57/113/179 113/146/180 114/144/181 58/114/182
f 60/115/183 116/55/184 115/145/185 59/116/186
s 6
f 59/116/187 115/145/188 89/30/148 33/90/147
s 10
f 58/114/182 114/144/181 116/55/184 60/115/183
s 1
f 1/83/189 2/84/190 86/26/26 85/131/25
f 2/84/190 30/86/191 87/51/51 86/26/26
f 30/86/191 29/149/192 88/119/52 87/51/51
