# This file uses centimeters as units for non-parametric coordinates.

mtllib Net_LP_V02.mtl
g default
v -2.988512 0.055491 2.988512
v 2.988512 0.055491 2.988512
v -2.988512 0.055491 -2.988512
v 2.988512 0.055491 -2.988512
v 2.445146 0.055491 -2.988512
v 2.445146 0.055491 2.988512
v 1.901780 0.055491 -2.988512
v 1.901780 0.055491 2.988512
v 1.358414 0.055491 -2.988512
v 1.358414 0.055491 2.988512
v 0.815049 0.055491 -2.988512
v 0.815049 0.055491 2.988512
v 0.271683 0.055491 -2.988512
v 0.271683 0.055491 2.988512
v -0.271683 0.055491 -2.988512
v -0.271683 0.055491 2.988512
v -0.815049 0.055491 -2.988512
v -0.815049 0.055491 2.988512
v -1.358415 0.055491 -2.988512
v -1.358415 0.055491 2.988512
v -1.901781 0.055491 -2.988512
v -1.901781 0.055491 2.988512
v -2.445146 0.055491 -2.988512
v -2.445146 0.055491 2.988512
v -0.815049 0.055491 -2.445146
v -1.358415 0.055491 -2.445146
v -1.901781 0.055491 -2.445146
v -2.445146 0.055491 -2.445146
v -2.988512 0.055491 -2.445146
v 2.988512 0.055491 -2.445146
v 2.445146 0.055491 -2.445146
v 1.901780 0.055491 -2.445146
v 1.358414 0.055491 -2.445146
v 0.815049 0.055491 -2.445146
v 0.271683 0.055491 -2.445146
v -0.271683 0.055491 -2.445146
v -0.815049 0.055491 -1.901780
v -1.358415 0.055491 -1.901780
v -1.901781 0.055491 -1.901780
v -2.445146 0.055491 -1.901780
v -2.988512 0.055491 -1.901780
v 2.988512 0.055491 -1.901780
v 2.445146 0.055491 -1.901780
v 1.901780 0.055491 -1.901780
v 1.358414 0.055491 -1.901780
v 0.815049 0.055491 -1.901780
v 0.271683 0.055491 -1.901780
v -0.271683 0.055491 -1.901780
v -0.815049 0.055491 -1.358414
v -1.358415 0.055491 -1.358414
v -1.901781 0.055491 -1.358414
v -2.445146 0.055491 -1.358414
v -2.988512 0.055491 -1.358414
v 2.988512 0.055491 -1.358414
v 2.445146 0.055491 -1.358414
v 1.901780 0.055491 -1.358414
v 1.358414 0.055491 -1.358414
v 0.815049 0.055491 -1.358414
v 0.271683 0.055491 -1.358414
v -0.271683 0.055491 -1.358414
v -0.815049 0.055491 -0.815049
v -1.358415 0.055491 -0.815049
v -1.901781 0.055491 -0.815049
v -2.445146 0.055491 -0.815049
v -2.988512 0.055491 -0.815049
v 2.988512 0.055491 -0.815049
v 2.445146 0.055491 -0.815049
v 1.901780 0.055491 -0.815049
v 1.358414 0.055491 -0.815049
v 0.815049 0.055491 -0.815049
v 0.271683 0.055491 -0.815049
v -0.271683 0.055491 -0.815049
v -0.815049 0.055491 -0.271683
v -1.358415 0.055491 -0.271683
v -1.901781 0.055491 -0.271683
v -2.445146 0.055491 -0.271683
v -2.988512 0.055491 -0.271683
v 2.988512 0.055491 -0.271683
v 2.445146 0.055491 -0.271683
v 1.901780 0.055491 -0.271683
v 1.358414 0.055491 -0.271683
v 0.815049 0.055491 -0.271683
v 0.271683 0.055491 -0.271683
v -0.271683 0.055491 -0.271683
v -0.815049 0.055491 0.271683
v -1.358415 0.055491 0.271683
v -1.901781 0.055491 0.271683
v -2.445146 0.055491 0.271683
v -2.988512 0.055491 0.271683
v 2.988512 0.055491 0.271683
v 2.445146 0.055491 0.271683
v 1.901780 0.055491 0.271683
v 1.358414 0.055491 0.271683
v 0.815049 0.055491 0.271683
v 0.271683 0.055491 0.271683
v -0.271683 0.055491 0.271683
v -0.815049 0.055491 0.815049
v -1.358415 0.055491 0.815049
v -1.901781 0.055491 0.815049
v -2.445146 0.055491 0.815049
v -2.988512 0.055491 0.815049
v 2.988512 0.055491 0.815049
v 2.445146 0.055491 0.815049
v 1.901780 0.055491 0.815049
v 1.358414 0.055491 0.815049
v 0.815049 0.055491 0.815049
v 0.271683 0.055491 0.815049
v -0.271683 0.055491 0.815049
v -0.815049 0.055491 1.358415
v -1.358415 0.055491 1.358415
v -1.901781 0.055491 1.358415
v -2.445146 0.055491 1.358415
v -2.988512 0.055491 1.358415
v 2.988512 0.055491 1.358415
v 2.445146 0.055491 1.358415
v 1.901780 0.055491 1.358415
v 1.358414 0.055491 1.358415
v 0.815049 0.055491 1.358415
v 0.271683 0.055491 1.358415
v -0.271683 0.055491 1.358415
v -0.815049 0.055491 1.901781
v -1.358415 0.055491 1.901781
v -1.901781 0.055491 1.901781
v -2.445146 0.055491 1.901781
v -2.988512 0.055491 1.901781
v 2.988512 0.055491 1.901781
v 2.445146 0.055491 1.901781
v 1.901780 0.055491 1.901781
v 1.358414 0.055491 1.901781
v 0.815049 0.055491 1.901781
v 0.271683 0.055491 1.901781
v -0.271683 0.055491 1.901781
v -0.815049 0.055491 2.445146
v -1.358415 0.055491 2.445146
v -1.901781 0.055491 2.445146
v -2.445146 0.055491 2.445146
v -2.988512 0.055491 2.445146
v 2.988512 0.055491 2.445146
v 2.445146 0.055491 2.445146
v 1.901780 0.055491 2.445146
v 1.358414 0.055491 2.445146
v 0.815049 0.055491 2.445146
v 0.271683 0.055491 2.445146
v -0.271683 0.055491 2.445146
vt 0.101416 0.012762
vt 0.012834 0.012755
vt 0.101409 0.101344
vt 0.012826 0.101337
vt 0.012755 0.987166
vt 0.101338 0.987174
vt 0.987238 0.101416
vt 0.987245 0.012833
vt 0.898584 0.987238
vt 0.987167 0.987245
vt 0.898662 0.012826
vt 0.898655 0.101409
vt 0.810001 0.987231
vt 0.810080 0.012819
vt 0.810072 0.101402
vt 0.721418 0.987224
vt 0.721497 0.012812
vt 0.721490 0.101395
vt 0.632835 0.987217
vt 0.632914 0.012805
vt 0.632906 0.101387
vt 0.544252 0.987210
vt 0.544331 0.012798
vt 0.544324 0.101380
vt 0.455670 0.987202
vt 0.455748 0.012791
vt 0.455741 0.101373
vt 0.367087 0.987195
vt 0.367165 0.012783
vt 0.367158 0.101366
vt 0.278503 0.987188
vt 0.278582 0.012776
vt 0.278575 0.101359
vt 0.189921 0.987181
vt 0.190000 0.012769
vt 0.189992 0.101352
vt 0.278511 0.898605
vt 0.367094 0.898612
vt 0.189928 0.898598
vt 0.101345 0.898591
vt 0.012762 0.898584
vt 0.987174 0.898662
vt 0.898591 0.898655
vt 0.810008 0.898648
vt 0.721425 0.898641
vt 0.632842 0.898634
vt 0.544259 0.898626
vt 0.455676 0.898619
vt 0.278518 0.810022
vt 0.367101 0.810030
vt 0.189935 0.810015
vt 0.101352 0.810008
vt 0.012769 0.810001
vt 0.987181 0.810080
vt 0.898598 0.810072
vt 0.810015 0.810065
vt 0.721432 0.810058
vt 0.632850 0.810051
vt 0.544267 0.810044
vt 0.455684 0.810036
vt 0.278525 0.721439
vt 0.367108 0.721447
vt 0.189942 0.721432
vt 0.101359 0.721425
vt 0.012776 0.721418
vt 0.987188 0.721497
vt 0.898605 0.721490
vt 0.810022 0.721482
vt 0.721439 0.721475
vt 0.632857 0.721468
vt 0.544274 0.721461
vt 0.455691 0.721454
vt 0.278532 0.632856
vt 0.367115 0.632864
vt 0.189949 0.632849
vt 0.101367 0.632842
vt 0.012784 0.632835
vt 0.987195 0.632914
vt 0.898612 0.632906
vt 0.810029 0.632899
vt 0.721446 0.632892
vt 0.632864 0.632885
vt 0.544281 0.632878
vt 0.455698 0.632871
vt 0.278539 0.544273
vt 0.367122 0.544281
vt 0.189956 0.544266
vt 0.101374 0.544259
vt 0.012791 0.544252
vt 0.987202 0.544331
vt 0.898619 0.544324
vt 0.810036 0.544317
vt 0.721454 0.544309
vt 0.632871 0.544302
vt 0.544288 0.544295
vt 0.455705 0.544288
vt 0.278546 0.455690
vt 0.367130 0.455698
vt 0.189963 0.455683
vt 0.101381 0.455676
vt 0.012798 0.455669
vt 0.987210 0.455748
vt 0.898627 0.455740
vt 0.810043 0.455733
vt 0.721461 0.455726
vt 0.632878 0.455719
vt 0.544295 0.455712
vt 0.455712 0.455705
vt 0.278553 0.367108
vt 0.367137 0.367115
vt 0.189971 0.367100
vt 0.101388 0.367093
vt 0.012805 0.367086
vt 0.987217 0.367165
vt 0.898634 0.367158
vt 0.810051 0.367150
vt 0.721468 0.367143
vt 0.632885 0.367136
vt 0.544302 0.367129
vt 0.455720 0.367122
vt 0.278561 0.278525
vt 0.367144 0.278532
vt 0.189978 0.278518
vt 0.101395 0.278510
vt 0.012812 0.278503
vt 0.987224 0.278582
vt 0.898641 0.278575
vt 0.810058 0.278568
vt 0.721475 0.278560
vt 0.632892 0.278553
vt 0.544310 0.278546
vt 0.455727 0.278539
vt 0.278568 0.189942
vt 0.367151 0.189949
vt 0.189985 0.189935
vt 0.101402 0.189927
vt 0.012819 0.189920
vt 0.987231 0.189999
vt 0.898648 0.189992
vt 0.810065 0.189985
vt 0.721482 0.189977
vt 0.632899 0.189970
vt 0.544317 0.189963
vt 0.455734 0.189956
vn -0.000000 1.000000 0.000000
vn -0.000000 1.000000 0.000000
vn -0.000000 1.000000 0.000000
vn -0.000000 1.000000 0.000000
vn 0.000000 1.000000 0.000000
vn 0.000000 1.000000 0.000000
vn 0.000000 1.000000 0.000000
vn 0.000000 1.000000 0.000000
vn 0.000000 1.000000 0.000000
vn 0.000000 1.000000 0.000000
vn 0.000000 1.000000 0.000000
vn 0.000000 1.000000 0.000000
vn 0.000000 1.000000 0.000000
vn 0.000000 1.000000 0.000000
vn 0.000000 1.000000 0.000000
vn 0.000000 1.000000 0.000000
vn 0.000000 1.000000 0.000000
vn 0.000000 1.000000 0.000000
vn -0.000000 1.000000 0.000000
vn -0.000000 1.000000 0.000000
vn -0.000000 1.000000 0.000000
vn -0.000000 1.000000 0.000000
vn 0.000000 1.000000 0.000000
vn 0.000000 1.000000 0.000000
vn 0.000000 1.000000 0.000000
vn 0.000000 1.000000 0.000000
vn -0.000000 1.000000 0.000000
vn -0.000000 1.000000 0.000000
vn 0.000000 1.000000 0.000000
vn 0.000000 1.000000 0.000000
vn -0.000000 1.000000 0.000000
vn -0.000000 1.000000 0.000000
vn -0.000000 1.000000 0.000000
vn -0.000000 1.000000 0.000000
vn 0.000000 1.000000 0.000000
vn 0.000000 1.000000 0.000000
vn 0.000000 1.000000 0.000000
vn 0.000000 1.000000 0.000000
vn 0.000000 1.000000 0.000000
vn 0.000000 1.000000 0.000000
vn 0.000000 1.000000 0.000000
vn 0.000000 1.000000 0.000000
vn 0.000000 1.000000 0.000000
vn 0.000000 1.000000 0.000000
vn 0.000000 1.000000 0.000000
vn 0.000000 1.000000 0.000000
vn 0.000000 1.000000 0.000000
vn 0.000000 1.000000 0.000000
vn 0.000000 1.000000 0.000000
vn 0.000000 1.000000 0.000000
vn 0.000000 1.000000 0.000000
vn 0.000000 1.000000 0.000000
vn 0.000000 1.000000 0.000000
vn 0.000000 1.000000 0.000000
vn 0.000000 1.000000 0.000000
vn 0.000000 1.000000 0.000000
vn 0.000000 1.000000 0.000000
vn 0.000000 1.000000 0.000000
vn 0.000000 1.000000 0.000000
vn 0.000000 1.000000 0.000000
vn 0.000000 1.000000 0.000000
vn 0.000000 1.000000 0.000000
vn 0.000000 1.000000 0.000000
vn 0.000000 1.000000 0.000000
vn 0.000000 1.000000 0.000000
vn 0.000000 1.000000 0.000000
vn 0.000000 1.000000 0.000000
vn 0.000000 1.000000 0.000000
vn 0.000000 1.000000 0.000000
vn 0.000000 1.000000 0.000000
vn 0.000000 1.000000 0.000000
vn 0.000000 1.000000 0.000000
vn 0.000000 1.000000 0.000000
vn 0.000000 1.000000 0.000000
vn 0.000000 1.000000 0.000000
vn 0.000000 1.000000 0.000000
vn 0.000000 1.000000 0.000000
vn 0.000000 1.000000 0.000000
vn 0.000000 1.000000 0.000000
vn 0.000000 1.000000 0.000000
vn 0.000000 1.000000 0.000000
vn 0.000000 1.000000 0.000000
vn 0.000000 1.000000 0.000000
vn 0.000000 1.000000 0.000000
vn 0.000000 1.000000 0.000000
vn 0.000000 1.000000 0.000000
vn 0.000000 1.000000 0.000000
vn 0.000000 1.000000 0.000000
vn 0.000000 1.000000 0.000000
vn 0.000000 1.000000 0.000000
vn 0.000000 1.000000 0.000000
vn 0.000000 1.000000 0.000000
vn 0.000000 1.000000 0.000000
vn 0.000000 1.000000 0.000000
vn 0.000000 1.000000 0.000000
vn 0.000000 1.000000 0.000000
vn 0.000000 1.000000 0.000000
vn 0.000000 1.000000 0.000000
vn 0.000000 1.000000 0.000000
vn 0.000000 1.000000 0.000000
vn 0.000000 1.000000 0.000000
vn 0.000000 1.000000 0.000000
vn 0.000000 1.000000 0.000000
vn 0.000000 1.000000 0.000000
vn 0.000000 1.000000 0.000000
vn 0.000000 1.000000 0.000000
vn 0.000000 1.000000 0.000000
vn 0.000000 1.000000 0.000000
vn -0.000000 1.000000 0.000000
vn -0.000000 1.000000 0.000000
vn 0.000000 1.000000 0.000000
vn -0.000000 1.000000 0.000000
vn -0.000000 1.000000 0.000000
vn 0.000000 1.000000 0.000000
vn 0.000000 1.000000 0.000000
vn 0.000000 1.000000 0.000000
vn 0.000000 1.000000 0.000000
vn 0.000000 1.000000 0.000000
vn 0.000000 1.000000 0.000000
vn 0.000000 1.000000 0.000000
vn -0.000000 1.000000 0.000000
vn -0.000000 1.000000 0.000000
vn 0.000000 1.000000 0.000000
vn -0.000000 1.000000 0.000000
vn -0.000000 1.000000 0.000000
vn 0.000000 1.000000 0.000000
vn 0.000000 1.000000 0.000000
vn 0.000000 1.000000 0.000000
vn 0.000000 1.000000 0.000000
vn 0.000000 1.000000 0.000000
vn 0.000000 1.000000 0.000000
vn 0.000000 1.000000 0.000000
vn 0.000000 1.000000 0.000000
vn -0.000000 1.000000 0.000000
vn 0.000000 1.000000 0.000000
vn -0.000000 1.000000 0.000000
vn -0.000000 1.000000 0.000000
vn 0.000000 1.000000 0.000000
vn 0.000000 1.000000 0.000000
vn 0.000000 1.000000 0.000000
vn 0.000000 1.000000 0.000000
vn 0.000000 1.000000 0.000000
vn 0.000000 1.000000 0.000000
vn 0.000000 1.000000 0.000000
s 1
g Net_LP1
usemtl initialShadingGroup
f 1/2/1 24/1/2 136/3/3 137/4/4
f 139/12/5 6/11/6 2/8/7 138/7/8
f 140/15/9 8/14/10 6/11/6 139/12/5
f 141/18/11 10/17/12 8/14/10 140/15/9
f 142/21/13 12/20/14 10/17/12 141/18/11
f 143/24/15 14/23/16 12/20/14 142/21/13
f 144/27/17 16/26/18 14/23/16 143/24/15
f 144/27/17 133/30/19 18/29/20 16/26/18
f 134/33/21 20/32/22 18/29/20 133/30/19
f 135/36/23 22/35/24 20/32/22 134/33/21
f 136/3/3 24/1/2 22/35/24 135/36/23
f 19/31/25 26/37/26 25/38/27 17/28/28
f 21/34/29 27/39/30 26/37/26 19/31/25
f 23/6/31 28/40/32 27/39/30 21/34/29
f 29/41/33 28/40/32 23/6/31 3/5/34
f 5/9/35 31/43/36 30/42/37 4/10/38
f 7/13/39 32/44/40 31/43/36 5/9/35
f 9/16/41 33/45/42 32/44/40 7/13/39
f 11/19/43 34/46/44 33/45/42 9/16/41
f 13/22/45 35/47/46 34/46/44 11/19/43
f 15/25/47 36/48/48 35/47/46 13/22/45
f 17/28/28 25/38/27 36/48/48 15/25/47
f 26/37/26 38/49/49 37/50/50 25/38/27
f 27/39/30 39/51/51 38/49/49 26/37/26
f 28/40/32 40/52/52 39/51/51 27/39/30
f 41/53/53 40/52/52 28/40/32 29/41/33
f 31/43/36 43/55/54 42/54/55 30/42/37
f 32/44/40 44/56/56 43/55/54 31/43/36
f 33/45/42 45/57/57 44/56/56 32/44/40
f 34/46/44 46/58/58 45/57/57 33/45/42
f 35/47/46 47/59/59 46/58/58 34/46/44
f 36/48/48 48/60/60 47/59/59 35/47/46
f 36/48/48 25/38/27 37/50/50 48/60/60
f 38/49/49 50/61/61 49/62/62 37/50/50
f 39/51/51 51/63/63 50/61/61 38/49/49
f 40/52/52 52/64/64 51/63/63 39/51/51
f 53/65/65 52/64/64 40/52/52 41/53/53
f 43/55/54 55/67/66 54/66/67 42/54/55
f 44/56/56 56/68/68 55/67/66 43/55/54
f 45/57/57 57/69/69 56/68/68 44/56/56
f 46/58/58 58/70/70 57/69/69 45/57/57
f 47/59/59 59/71/71 58/70/70 46/58/58
f 48/60/60 60/72/72 59/71/71 47/59/59
f 48/60/60 37/50/50 49/62/62 60/72/72
f 50/61/61 62/73/73 61/74/74 49/62/62
f 51/63/63 63/75/75 62/73/73 50/61/61
f 52/64/64 64/76/76 63/75/75 51/63/63
f 65/77/77 64/76/76 52/64/64 53/65/65
f 55/67/66 67/79/78 66/78/79 54/66/67
f 56/68/68 68/80/80 67/79/78 55/67/66
f 57/69/69 69/81/81 68/80/80 56/68/68
f 58/70/70 70/82/82 69/81/81 57/69/69
f 59/71/71 71/83/83 70/82/82 58/70/70
f 60/72/72 72/84/84 71/83/83 59/71/71
f 60/72/72 49/62/62 61/74/74 72/84/84
f 62/73/73 74/85/85 73/86/86 61/74/74
f 63/75/75 75/87/87 74/85/85 62/73/73
f 64/76/76 76/88/88 75/87/87 63/75/75
f 77/89/89 76/88/88 64/76/76 65/77/77
f 67/79/78 79/91/90 78/90/91 66/78/79
f 68/80/80 80/92/92 79/91/90 67/79/78
f 69/81/81 81/93/93 80/92/92 68/80/80
f 70/82/82 82/94/94 81/93/93 69/81/81
f 71/83/83 83/95/95 82/94/94 70/82/82
f 72/84/84 84/96/96 83/95/95 71/83/83
f 72/84/84 61/74/74 73/86/86 84/96/96
f 74/85/85 86/97/97 85/98/98 73/86/86
f 75/87/87 87/99/99 86/97/97 74/85/85
f 76/88/88 88/100/100 87/99/99 75/87/87
f 89/101/101 88/100/100 76/88/88 77/89/89
f 79/91/90 91/103/102 90/102/103 78/90/91
f 80/92/92 92/104/104 91/103/102 79/91/90
f 81/93/93 93/105/105 92/104/104 80/92/92
f 82/94/94 94/106/106 93/105/105 81/93/93
f 83/95/95 95/107/107 94/106/106 82/94/94
f 84/96/96 96/108/108 95/107/107 83/95/95
f 84/96/96 73/86/86 85/98/98 96/108/108
f 86/97/97 98/109/109 97/110/110 85/98/98
f 87/99/99 99/111/111 98/109/109 86/97/97
f 88/100/100 100/112/112 99/111/111 87/99/99
f 101/113/113 100/112/112 88/100/100 89/101/101
f 91/103/102 103/115/114 102/114/115 90/102/103
f 92/104/104 104/116/116 103/115/114 91/103/102
f 93/105/105 105/117/117 104/116/116 92/104/104
f 94/106/106 106/118/118 105/117/117 93/105/105
f 95/107/107 107/119/119 106/118/118 94/106/106
f 96/108/108 108/120/120 107/119/119 95/107/107
f 96/108/108 85/98/98 97/110/110 108/120/120
f 98/109/109 110/121/121 109/122/122 97/110/110
f 99/111/111 111/123/123 110/121/121 98/109/109
f 100/112/112 112/124/124 111/123/123 99/111/111
f 113/125/125 112/124/124 100/112/112 101/113/113
f 103/115/114 115/127/126 114/126/127 102/114/115
f 104/116/116 116/128/128 115/127/126 103/115/114
f 105/117/117 117/129/129 116/128/128 104/116/116
f 106/118/118 118/130/130 117/129/129 105/117/117
f 107/119/119 119/131/131 118/130/130 106/118/118
f 108/120/120 120/132/132 119/131/131 107/119/119
f 108/120/120 97/110/110 109/122/122 120/132/132
f 110/121/121 122/133/133 121/134/134 109/122/122
f 111/123/123 123/135/135 122/133/133 110/121/121
f 112/124/124 124/136/136 123/135/135 111/123/123
f 125/137/137 124/136/136 112/124/124 113/125/125
f 115/127/126 127/139/138 126/138/139 114/126/127
f 116/128/128 128/140/140 127/139/138 115/127/126
f 117/129/129 129/141/141 128/140/140 116/128/128
f 118/130/130 130/142/142 129/141/141 117/129/129
f 119/131/131 131/143/143 130/142/142 118/130/130
f 120/132/132 132/144/144 131/143/143 119/131/131
f 120/132/132 109/122/122 121/134/134 132/144/144
f 122/133/133 134/33/21 133/30/19 121/134/134
f 123/135/135 135/36/23 134/33/21 122/133/133
f 124/136/136 136/3/3 135/36/23 123/135/135
f 137/4/4 136/3/3 124/136/136 125/137/137
f 127/139/138 139/12/5 138/7/8 126/138/139
f 128/140/140 140/15/9 139/12/5 127/139/138
f 129/141/141 141/18/11 140/15/9 128/140/140
f 130/142/142 142/21/13 141/18/11 129/141/141
f 131/143/143 143/24/15 142/21/13 130/142/142
f 132/144/144 144/27/17 143/24/15 131/143/143
f 132/144/144 121/134/134 133/30/19 144/27/17
